<?xml version="1.0" encoding="UTF-8" standalone="no" ?>
<!DOCTYPE svg PUBLIC "-//W3C//DTD SVG 1.1//EN" "http://www.w3.org/Graphics/SVG/1.1/DTD/svg11.dtd">
<svg xmlns="http://www.w3.org/2000/svg" xmlns:xlink="http://www.w3.org/1999/xlink" version="1.1" width="864" height="456" viewBox="0 0 864 456" xml:space="preserve">
<desc>Created with Fabric.js 4.3.1</desc>
<defs>
</defs>
<g transform="matrix(1 0 0 1 321 178.5)"  >
<path style="stroke: rgb(0,0,0); stroke-width: 3; stroke-dasharray: none; stroke-linecap: round; stroke-dashoffset: 0; stroke-linejoin: round; stroke-miterlimit: 10; fill: none; fill-rule: nonzero; opacity: 1;"  transform=" translate(-321, -178.5)" d="M 320.997 178.5 L 321.003 178.5" stroke-linecap="round" />
</g>
<g transform="matrix(1 0 0 1 44.44 71)"  >
<path style="stroke: rgb(0,0,0); stroke-width: 3; stroke-dasharray: none; stroke-linecap: round; stroke-dashoffset: 0; stroke-linejoin: round; stroke-miterlimit: 10; fill: none; fill-rule: nonzero; opacity: 1;"  transform=" translate(-44.44, -71)" d="M 41.997 45.497 Q 42 45.5 43.5 58 Q 45 70.5 45.5 76 Q 46 81.5 46.5 84.5 Q 47 87.5 46.5 92 L 45.997 96.503" stroke-linecap="round" />
</g>
<g transform="matrix(1 0 0 1 56.5 51)"  >
<path style="stroke: rgb(0,0,0); stroke-width: 3; stroke-dasharray: none; stroke-linecap: round; stroke-dashoffset: 0; stroke-linejoin: round; stroke-miterlimit: 10; fill: none; fill-rule: nonzero; opacity: 1;"  transform=" translate(-56.5, -51)" d="M 39.997 41.503 Q 40 41.5 40 39.5 Q 40 37.5 43.5 36.5 Q 47 35.5 51 35.5 Q 55 35.5 59.5 36 Q 64 36.5 67 38.5 Q 70 40.5 71.5 42 Q 73 43.5 73 47.5 Q 73 51.5 71 54.5 Q 69 57.5 66 60.5 Q 63 63.5 60 65 Q 57 66.5 55 66.5 L 52.997 66.5" stroke-linecap="round" />
</g>
<g transform="matrix(1 0 0 1 86.57 65.19)"  >
<path style="stroke: rgb(0,0,0); stroke-width: 3; stroke-dasharray: none; stroke-linecap: round; stroke-dashoffset: 0; stroke-linejoin: round; stroke-miterlimit: 10; fill: none; fill-rule: nonzero; opacity: 1;"  transform=" translate(-86.56, -65.19)" d="M 102.003 20.497 Q 102 20.5 100 19 Q 98 17.5 95.5 19 Q 93 20.5 90.5 23 Q 88 25.5 85 30 Q 82 34.5 79 41 Q 76 47.5 74 55.5 Q 72 63.5 71.5 72.5 Q 71 81.5 71.5 88.5 Q 72 95.5 73.5 100.5 Q 75 105.5 78 108 Q 81 110.5 83.5 111.5 Q 86 112.5 88 112.5 L 90.003 112.5" stroke-linecap="round" />
</g>
<g transform="matrix(1 0 0 1 129 73.13)"  >
<path style="stroke: rgb(0,0,0); stroke-width: 3; stroke-dasharray: none; stroke-linecap: round; stroke-dashoffset: 0; stroke-linejoin: round; stroke-miterlimit: 10; fill: none; fill-rule: nonzero; opacity: 1;"  transform=" translate(-129, -73.13)" d="M 104.003 56.497 Q 104 56.5 102 56 Q 100 55.5 99.5 59 Q 99 62.5 99 67 Q 99 71.5 99.5 76 Q 100 80.5 101.5 84 Q 103 87.5 105 89 Q 107 90.5 109 90.5 Q 111 90.5 112.5 89 Q 114 87.5 115.5 85 Q 117 82.5 117 79 Q 117 75.5 117 72.5 Q 117 69.5 117 74 Q 117 78.5 118.5 81 Q 120 83.5 122 85 Q 124 86.5 126.5 86.5 Q 129 86.5 131 85 Q 133 83.5 134 81 Q 135 78.5 135.5 75.5 Q 136 72.5 136 69 Q 136 65.5 135.5 63.5 Q 135 61.5 135 66 Q 135 70.5 136 73 Q 137 75.5 139 77 Q 141 78.5 143 79 Q 145 79.5 147.5 78.5 Q 150 77.5 153 76 Q 156 74.5 157.5 72 Q 159 69.5 159 66.5 Q 159 63.5 158 61.5 Q 157 59.5 155 59.5 Q 153 59.5 150.5 62 Q 148 64.5 146 69.5 Q 144 74.5 144 77.5 Q 144 80.5 145.5 83.5 Q 147 86.5 150 88 L 153.003 89.503" stroke-linecap="round" />
</g>
<g transform="matrix(1 0 0 1 171.63 74.07)"  >
<path style="stroke: rgb(0,0,0); stroke-width: 3; stroke-dasharray: none; stroke-linecap: round; stroke-dashoffset: 0; stroke-linejoin: round; stroke-miterlimit: 10; fill: none; fill-rule: nonzero; opacity: 1;"  transform=" translate(-171.63, -74.06)" d="M 184.003 66.503 Q 184 66.5 182 65.5 Q 180 64.5 178 64 Q 176 63.5 174 64 Q 172 64.5 168.5 67 Q 165 69.5 162.5 72 Q 160 74.5 159.5 76.5 Q 159 78.5 162.5 81 Q 166 83.5 169 84 Q 172 84.5 174.5 84.5 Q 177 84.5 178.5 82.5 Q 180 80.5 180.5 77.5 L 181.003 74.497" stroke-linecap="round" />
</g>
<g transform="matrix(1 0 0 1 198.9 79.68)"  >
<path style="stroke: rgb(0,0,0); stroke-width: 3; stroke-dasharray: none; stroke-linecap: round; stroke-dashoffset: 0; stroke-linejoin: round; stroke-miterlimit: 10; fill: none; fill-rule: nonzero; opacity: 1;"  transform=" translate(-198.9, -79.68)" d="M 189.997 74.497 Q 190 74.5 191.5 77 Q 193 79.5 194 82 Q 195 84.5 196 87.5 Q 197 90.5 197 94 Q 197 97.5 197 99.5 Q 197 101.5 195 98 Q 193 94.5 191.5 91 Q 190 87.5 189 81.5 Q 188 75.5 188 70.5 Q 188 65.5 190 63 Q 192 60.5 194 59.5 Q 196 58.5 198.5 58.5 Q 201 58.5 203.5 60 Q 206 61.5 207.5 64.5 Q 209 67.5 209.5 70.5 Q 210 73.5 208.5 76.5 Q 207 79.5 205 81.5 Q 203 83.5 200 84.5 L 196.997 85.503" stroke-linecap="round" />
</g>
<g transform="matrix(1 0 0 1 233.74 79)"  >
<path style="stroke: rgb(0,0,0); stroke-width: 3; stroke-dasharray: none; stroke-linecap: round; stroke-dashoffset: 0; stroke-linejoin: round; stroke-miterlimit: 10; fill: none; fill-rule: nonzero; opacity: 1;"  transform=" translate(-233.74, -79)" d="M 236.003 73.503 Q 236 73.5 236 71.5 Q 236 69.5 234.5 68 Q 233 66.5 231 65.5 Q 229 64.5 226 64.5 Q 223 64.5 220 66.5 Q 217 68.5 214 71.5 Q 211 74.5 209.5 77 Q 208 79.5 210.5 80 Q 213 80.5 215.5 79 Q 218 77.5 220.5 75 Q 223 72.5 224.5 70.5 Q 226 68.5 227.5 67 Q 229 65.5 231 68.5 Q 233 71.5 233 75.5 Q 233 79.5 233 83 Q 233 86.5 234 83.5 Q 235 80.5 235 77.5 Q 235 74.5 236 71 Q 237 67.5 239 66.5 Q 241 65.5 243 67.5 Q 245 69.5 246 73.5 Q 247 77.5 248 81.5 Q 249 85.5 251 88.5 Q 253 91.5 256 92.5 L 259.003 93.503" stroke-linecap="round" />
</g>
<g transform="matrix(1 0 0 1 286.5 70)"  >
<path style="stroke: rgb(0,0,0); stroke-width: 3; stroke-dasharray: none; stroke-linecap: round; stroke-dashoffset: 0; stroke-linejoin: round; stroke-miterlimit: 10; fill: none; fill-rule: nonzero; opacity: 1;"  transform=" translate(-286.5, -70)" d="M 272.997 24.497 Q 273 24.5 275.5 26 Q 278 27.5 279.5 30 Q 281 32.5 283 36 Q 285 39.5 287 44 Q 289 48.5 291 54 Q 293 59.5 295.5 65 Q 298 70.5 299 76 Q 300 81.5 300 87 Q 300 92.5 298.5 97 Q 297 101.5 295 105.5 Q 293 109.5 290 111.5 Q 287 113.5 285 114.5 L 282.997 115.503" stroke-linecap="round" />
</g>
<g transform="matrix(1 0 0 1 328 69.5)"  >
<path style="stroke: rgb(0,0,0); stroke-width: 3; stroke-dasharray: none; stroke-linecap: round; stroke-dashoffset: 0; stroke-linejoin: round; stroke-miterlimit: 10; fill: none; fill-rule: nonzero; opacity: 1;"  transform=" translate(-328, -69.5)" d="M 319.997 68.497 Q 320 68.5 322 68.5 Q 324 68.5 327.5 69 Q 331 69.5 333.5 70 L 336.003 70.503" stroke-linecap="round" />
</g>
<g transform="matrix(1 0 0 1 335 82.5)"  >
<path style="stroke: rgb(0,0,0); stroke-width: 3; stroke-dasharray: none; stroke-linecap: round; stroke-dashoffset: 0; stroke-linejoin: round; stroke-miterlimit: 10; fill: none; fill-rule: nonzero; opacity: 1;"  transform=" translate(-335, -82.5)" d="M 325.997 81.5 Q 326 81.5 328 82.5 Q 330 83.5 333 83.5 Q 336 83.5 340 83 L 344.003 82.497" stroke-linecap="round" />
</g>
<g transform="matrix(1 0 0 1 391.98 77.04)"  >
<path style="stroke: rgb(0,0,0); stroke-width: 3; stroke-dasharray: none; stroke-linecap: round; stroke-dashoffset: 0; stroke-linejoin: round; stroke-miterlimit: 10; fill: none; fill-rule: nonzero; opacity: 1;"  transform=" translate(-391.99, -77.04)" d="M 423.997 51.503 Q 424 51.5 424 49.5 Q 424 47.5 424.5 44 Q 425 40.5 425.5 38.5 Q 426 36.5 424.5 35 Q 423 33.5 420 34 Q 417 34.5 413.5 35 Q 410 35.5 405 36.5 Q 400 37.5 394.5 38.5 Q 389 39.5 385 40 Q 381 40.5 379 41 Q 377 41.5 375 42 Q 373 42.5 374 44.5 Q 375 46.5 376.5 49.5 Q 378 52.5 378 54.5 Q 378 56.5 378.5 58.5 Q 379 60.5 379 63 Q 379 65.5 378 68.5 Q 377 71.5 375 75.5 Q 373 79.5 370.5 83.5 Q 368 87.5 365 91 Q 362 94.5 360.5 97.5 Q 359 100.5 358.5 103 Q 358 105.5 359 108 Q 360 110.5 362 112.5 Q 364 114.5 367 116.5 Q 370 118.5 374 119 Q 378 119.5 382 120 Q 386 120.5 390 120 Q 394 119.5 398 119 Q 402 118.5 406 117.5 Q 410 116.5 413 116 Q 416 115.5 418 114.5 Q 420 113.5 418.5 112 Q 417 110.5 415 109 Q 413 107.5 409 105.5 Q 405 103.5 403 102.5 L 400.997 101.497" stroke-linecap="round" />
</g>
<g transform="matrix(1 0 0 1 337 159.22)"  >
<path style="stroke: rgb(0,0,0); stroke-width: 3; stroke-dasharray: none; stroke-linecap: round; stroke-dashoffset: 0; stroke-linejoin: round; stroke-miterlimit: 10; fill: none; fill-rule: nonzero; opacity: 1;"  transform=" translate(-337, -159.22)" d="M 323 149.497 Q 323 149.5 323 159 Q 323 168.5 323 171 Q 323 173.5 322 169.5 Q 321 165.5 321 161.5 Q 321 157.5 322 154 Q 323 150.5 325 148.5 Q 327 146.5 329 146 Q 331 145.5 333.5 147.5 Q 336 149.5 337.5 152 Q 339 154.5 340 157 Q 341 159.5 341 162 Q 341 164.5 341 160 Q 341 155.5 343 153 Q 345 150.5 347 151 Q 349 151.5 349.5 154 Q 350 156.5 350.5 160 Q 351 163.5 352 166 L 353.003 168.503" stroke-linecap="round" />
</g>
<g transform="matrix(1 0 0 1 375 164.9)"  >
<path style="stroke: rgb(0,0,0); stroke-width: 3; stroke-dasharray: none; stroke-linecap: round; stroke-dashoffset: 0; stroke-linejoin: round; stroke-miterlimit: 10; fill: none; fill-rule: nonzero; opacity: 1;"  transform=" translate(-375, -164.89)" d="M 366.003 155.497 Q 366 155.5 363.5 159 Q 361 162.5 360 165.5 Q 359 168.5 359 171 Q 359 173.5 362 174.5 Q 365 175.5 367 173.5 Q 369 171.5 370.5 169 Q 372 166.5 373 164.5 Q 374 162.5 374 160.5 Q 374 158.5 376 162 Q 378 165.5 378.5 168 Q 379 170.5 379.5 173 Q 380 175.5 378.5 172.5 Q 377 169.5 377 166 Q 377 162.5 378 160 Q 379 157.5 381 156.5 Q 383 155.5 385 155 Q 387 154.5 389 155 L 391.003 155.503" stroke-linecap="round" />
</g>
<g transform="matrix(1 0 0 1 397.48 162.21)"  >
<path style="stroke: rgb(0,0,0); stroke-width: 3; stroke-dasharray: none; stroke-linecap: round; stroke-dashoffset: 0; stroke-linejoin: round; stroke-miterlimit: 10; fill: none; fill-rule: nonzero; opacity: 1;"  transform=" translate(-397.49, -162.22)" d="M 395.997 156.503 Q 396 156.5 396 154.5 Q 396 152.5 396.5 150.5 Q 397 148.5 399 146.5 Q 401 144.5 403 146 Q 405 147.5 405.5 150.5 Q 406 153.5 406.5 157 Q 407 160.5 407.5 163.5 Q 408 166.5 406.5 163 Q 405 159.5 402.5 157.5 Q 400 155.5 398 155.5 Q 396 155.5 394 157.5 Q 392 159.5 390.5 162.5 Q 389 165.5 388 169 Q 387 172.5 387.5 175 Q 388 177.5 390 178.5 Q 392 179.5 394.5 179.5 L 397.003 179.5" stroke-linecap="round" />
</g>
<g transform="matrix(1 0 0 1 416.89 169.2)"  >
<path style="stroke: rgb(0,0,0); stroke-width: 3; stroke-dasharray: none; stroke-linecap: round; stroke-dashoffset: 0; stroke-linejoin: round; stroke-miterlimit: 10; fill: none; fill-rule: nonzero; opacity: 1;"  transform=" translate(-416.89, -169.2)" d="M 408.997 165.497 Q 409 165.5 409.5 169 Q 410 172.5 413.5 173 Q 417 173.5 419 172 Q 421 170.5 423 169 Q 425 167.5 424.5 163.5 Q 424 159.5 421.5 158.5 Q 419 157.5 418 160.5 Q 417 163.5 417 167 Q 417 170.5 417 173.5 Q 417 176.5 418.5 178.5 L 420.003 180.503" stroke-linecap="round" />
</g>
<g transform="matrix(1 0 0 1 464 165.76)"  >
<path style="stroke: rgb(0,0,0); stroke-width: 3; stroke-dasharray: none; stroke-linecap: round; stroke-dashoffset: 0; stroke-linejoin: round; stroke-miterlimit: 10; fill: none; fill-rule: nonzero; opacity: 1;"  transform=" translate(-464, -165.76)" d="M 433 168.497 Q 433 168.5 435 171 Q 437 173.5 437 175.5 Q 437 177.5 436 173.5 Q 435 169.5 436 166.5 Q 437 163.5 438.5 162 Q 440 160.5 442 160 Q 444 159.5 445 162 Q 446 164.5 449 166.5 Q 452 168.5 454 168.5 Q 456 168.5 458 167 Q 460 165.5 461 163 Q 462 160.5 460 161 Q 458 161.5 456.5 163.5 Q 455 165.5 455 167.5 Q 455 169.5 456.5 171 Q 458 172.5 461.5 173 Q 465 173.5 468 172.5 Q 471 171.5 472 169 Q 473 166.5 474.5 168 Q 476 169.5 477.5 173 Q 479 176.5 481 180 Q 483 183.5 484.5 185 Q 486 186.5 486.5 184 Q 487 181.5 487.5 177.5 Q 488 173.5 488.5 168 Q 489 162.5 490.5 157.5 Q 492 152.5 493.5 149 L 495.003 145.497" stroke-linecap="round" />
</g>
<g transform="matrix(1 0 0 1 478.5 78)"  >
<path style="stroke: rgb(0,0,0); stroke-width: 3; stroke-dasharray: none; stroke-linecap: round; stroke-dashoffset: 0; stroke-linejoin: round; stroke-miterlimit: 10; fill: none; fill-rule: nonzero; opacity: 1;"  transform=" translate(-478.5, -78)" d="M 472.997 52.497 Q 473 52.5 477 68.5 Q 481 84.5 482 92 Q 483 99.5 483.5 101.5 L 484.003 103.503" stroke-linecap="round" />
</g>
<g transform="matrix(1 0 0 1 496.33 60.5)"  >
<path style="stroke: rgb(0,0,0); stroke-width: 3; stroke-dasharray: none; stroke-linecap: round; stroke-dashoffset: 0; stroke-linejoin: round; stroke-miterlimit: 10; fill: none; fill-rule: nonzero; opacity: 1;"  transform=" translate(-496.33, -60.5)" d="M 478 58.503 Q 478 58.5 476.5 54.5 Q 475 50.5 475 48.5 Q 475 46.5 477 45 Q 479 43.5 483 42.5 Q 487 41.5 491 41.5 Q 495 41.5 499 42 Q 503 42.5 507 45 Q 511 47.5 513.5 51.5 Q 516 55.5 517 59.5 Q 518 63.5 516 67 Q 514 70.5 511 73.5 Q 508 76.5 504.5 78 L 500.997 79.503" stroke-linecap="round" />
</g>
<g transform="matrix(1 0 0 1 545.09 69.5)"  >
<path style="stroke: rgb(0,0,0); stroke-width: 3; stroke-dasharray: none; stroke-linecap: round; stroke-dashoffset: 0; stroke-linejoin: round; stroke-miterlimit: 10; fill: none; fill-rule: nonzero; opacity: 1;"  transform=" translate(-545.09, -69.5)" d="M 555.003 22.497 Q 555 22.5 553.5 24 Q 552 25.5 549.5 29.5 Q 547 33.5 544 40.5 Q 541 47.5 538.5 57 Q 536 66.5 535 76.5 Q 534 86.5 534.5 94 Q 535 101.5 537.5 106 Q 540 110.5 543.5 112.5 Q 547 114.5 551.5 115.5 L 556.003 116.503" stroke-linecap="round" />
</g>
<g transform="matrix(1 0 0 1 599.91 85.5)"  >
<path style="stroke: rgb(0,0,0); stroke-width: 3; stroke-dasharray: none; stroke-linecap: round; stroke-dashoffset: 0; stroke-linejoin: round; stroke-miterlimit: 10; fill: none; fill-rule: nonzero; opacity: 1;"  transform=" translate(-599.91, -85.5)" d="M 566 67.497 Q 566 67.5 564 76 Q 562 84.5 562 87 Q 562 89.5 565 90.5 Q 568 91.5 571 90 Q 574 88.5 576 86 Q 578 83.5 579.5 81.5 Q 581 79.5 582 84.5 Q 583 89.5 584.5 92.5 Q 586 95.5 588.5 96.5 Q 591 97.5 594 97.5 Q 597 97.5 600.5 95.5 Q 604 93.5 606 91 Q 608 88.5 609.5 85.5 Q 611 82.5 611.5 78.5 Q 612 74.5 612 72 Q 612 69.5 611.5 74 Q 611 78.5 612.5 81 Q 614 83.5 616 84.5 Q 618 85.5 621 85.5 Q 624 85.5 627 84.5 Q 630 83.5 633 81.5 Q 636 79.5 637 77 Q 638 74.5 637.5 72 Q 637 69.5 633 71 Q 629 72.5 626.5 77 Q 624 81.5 623 86.5 Q 622 91.5 623 95.5 Q 624 99.5 627 101.5 L 630.003 103.503" stroke-linecap="round" />
</g>
<g transform="matrix(1 0 0 1 666.19 89.17)"  >
<path style="stroke: rgb(0,0,0); stroke-width: 3; stroke-dasharray: none; stroke-linecap: round; stroke-dashoffset: 0; stroke-linejoin: round; stroke-miterlimit: 10; fill: none; fill-rule: nonzero; opacity: 1;"  transform=" translate(-666.19, -89.17)" d="M 675.003 78.497 Q 675 78.5 672.5 77.5 Q 670 76.5 666.5 78.5 Q 663 80.5 661 83.5 Q 659 86.5 657.5 89.5 Q 656 92.5 657.5 94.5 Q 659 96.5 661 95.5 Q 663 94.5 665.5 93 Q 668 91.5 670 89.5 Q 672 87.5 674 87.5 Q 676 87.5 676 90.5 Q 676 93.5 676 97.5 L 676 101.503" stroke-linecap="round" />
</g>
<g transform="matrix(1 0 0 1 690.93 87.97)"  >
<path style="stroke: rgb(0,0,0); stroke-width: 3; stroke-dasharray: none; stroke-linecap: round; stroke-dashoffset: 0; stroke-linejoin: round; stroke-miterlimit: 10; fill: none; fill-rule: nonzero; opacity: 1;"  transform=" translate(-690.93, -87.97)" d="M 688.003 90.497 Q 688 90.5 688 93.5 Q 688 96.5 687.5 99 Q 687 101.5 687 106 Q 687 110.5 686 106.5 Q 685 102.5 683.5 98 Q 682 93.5 680.5 87 Q 679 80.5 679.5 75.5 Q 680 70.5 681.5 68.5 Q 683 66.5 686 66.5 Q 689 66.5 692.5 67.5 Q 696 68.5 698.5 70.5 Q 701 72.5 702 75 Q 703 77.5 701 80.5 Q 699 83.5 696 86.5 Q 693 89.5 690.5 91 L 687.997 92.503" stroke-linecap="round" />
</g>
<g transform="matrix(1 0 0 1 718.28 76.6)"  >
<path style="stroke: rgb(0,0,0); stroke-width: 3; stroke-dasharray: none; stroke-linecap: round; stroke-dashoffset: 0; stroke-linejoin: round; stroke-miterlimit: 10; fill: none; fill-rule: nonzero; opacity: 1;"  transform=" translate(-718.28, -76.6)" d="M 719.003 80.503 Q 719 80.5 721.5 79 Q 724 77.5 721.5 75.5 Q 719 73.5 715.5 73.5 Q 712 73.5 708.5 73.5 Q 705 73.5 703 74 Q 701 74.5 703.5 74 Q 706 73.5 708 73 Q 710 72.5 712 72 Q 714 71.5 716.5 73 Q 719 74.5 719.5 76.5 Q 720 78.5 723 76 Q 726 73.5 728.5 72.5 Q 731 71.5 733 74 Q 735 76.5 735 79 L 735 81.503" stroke-linecap="round" />
</g>
<g transform="matrix(1 0 0 1 745.44 103.5)"  >
<path style="stroke: rgb(0,0,0); stroke-width: 3; stroke-dasharray: none; stroke-linecap: round; stroke-dashoffset: 0; stroke-linejoin: round; stroke-miterlimit: 10; fill: none; fill-rule: nonzero; opacity: 1;"  transform=" translate(-745.44, -103.5)" d="M 751.003 92.497 Q 751 92.5 751.5 95 Q 752 97.5 751.5 101 Q 751 104.5 748.5 107.5 Q 746 110.5 742.5 112.5 L 738.997 114.503" stroke-linecap="round" />
</g>
<g transform="matrix(1 0 0 1 781.58 86)"  >
<path style="stroke: rgb(0,0,0); stroke-width: 3; stroke-dasharray: none; stroke-linecap: round; stroke-dashoffset: 0; stroke-linejoin: round; stroke-miterlimit: 10; fill: none; fill-rule: nonzero; opacity: 1;"  transform=" translate(-781.59, -86)" d="M 772.997 71.497 Q 773 71.5 773 75 Q 773 78.5 773.5 83 Q 774 87.5 774 90.5 Q 774 93.5 773.5 95.5 Q 773 97.5 771 98 Q 769 98.5 768.5 94.5 Q 768 90.5 769 86.5 Q 770 82.5 772 79 Q 774 75.5 776.5 73.5 Q 779 71.5 782 73 Q 785 74.5 786 77 Q 787 79.5 788 82.5 Q 789 85.5 789 87.5 Q 789 89.5 789 91.5 Q 789 93.5 790.5 90 Q 792 86.5 793.5 85 Q 795 83.5 795 85.5 Q 795 87.5 794 91 Q 793 94.5 792.5 97.5 L 791.997 100.503" stroke-linecap="round" />
</g>
<g transform="matrix(1 0 0 1 809 92.39)"  >
<path style="stroke: rgb(0,0,0); stroke-width: 3; stroke-dasharray: none; stroke-linecap: round; stroke-dashoffset: 0; stroke-linejoin: round; stroke-miterlimit: 10; fill: none; fill-rule: nonzero; opacity: 1;"  transform=" translate(-809, -92.39)" d="M 804.003 82.497 Q 804 82.5 803.5 84.5 Q 803 86.5 801.5 90.5 Q 800 94.5 800 96.5 Q 800 98.5 800.5 100.5 Q 801 102.5 803.5 102 Q 806 101.5 808 100 Q 810 98.5 811.5 97 Q 813 95.5 814.5 93.5 Q 816 91.5 816.5 89.5 Q 817 87.5 817.5 85.5 L 818.003 83.497" stroke-linecap="round" />
</g>
<g transform="matrix(1 0 0 1 818.94 90.5)"  >
<path style="stroke: rgb(0,0,0); stroke-width: 3; stroke-dasharray: none; stroke-linecap: round; stroke-dashoffset: 0; stroke-linejoin: round; stroke-miterlimit: 10; fill: none; fill-rule: nonzero; opacity: 1;"  transform=" translate(-818.94, -90.5)" d="M 820.003 81.497 Q 820 81.5 820.5 84 Q 821 86.5 820.5 89 Q 820 91.5 819 93.5 Q 818 95.5 817.5 97.5 L 816.997 99.503" stroke-linecap="round" />
</g>
<g transform="matrix(1 0 0 1 833.39 78.72)"  >
<path style="stroke: rgb(0,0,0); stroke-width: 3; stroke-dasharray: none; stroke-linecap: round; stroke-dashoffset: 0; stroke-linejoin: round; stroke-miterlimit: 10; fill: none; fill-rule: nonzero; opacity: 1;"  transform=" translate(-833.39, -78.72)" d="M 810.997 30.497 Q 811 30.5 821.5 29 Q 832 27.5 834.5 29.5 Q 837 31.5 839 34 Q 841 36.5 846.5 45 Q 852 53.5 854 61.5 Q 856 69.5 855.5 78 Q 855 86.5 851.5 93 Q 848 99.5 844.5 105 Q 841 110.5 837.5 114.5 Q 834 118.5 831 122 Q 828 125.5 826.5 127.5 L 824.997 129.503" stroke-linecap="round" />
</g>
<g transform="matrix(1 0 0 1 32.41 234.5)"  >
<path style="stroke: rgb(0,0,0); stroke-width: 3; stroke-dasharray: none; stroke-linecap: round; stroke-dashoffset: 0; stroke-linejoin: round; stroke-miterlimit: 10; fill: none; fill-rule: nonzero; opacity: 1;"  transform=" translate(-32.41, -234.5)" d="M 23.997 215.497 Q 24 215.5 29.5 218.5 Q 35 221.5 36.5 226.5 Q 38 231.5 39 237 Q 40 242.5 40.5 245.5 Q 41 248.5 40 251 L 38.997 253.503" stroke-linecap="round" />
</g>
<g transform="matrix(1 0 0 1 35 214)"  >
<path style="stroke: rgb(0,0,0); stroke-width: 3; stroke-dasharray: none; stroke-linecap: round; stroke-dashoffset: 0; stroke-linejoin: round; stroke-miterlimit: 10; fill: none; fill-rule: nonzero; opacity: 1;"  transform=" translate(-35, -214)" d="M 26 212.503 Q 26 212.5 25.5 210 Q 25 207.5 25 205.5 Q 25 203.5 26.5 202 Q 28 200.5 30 199.5 Q 32 198.5 34 198.5 Q 36 198.5 38 200.5 Q 40 202.5 41.5 204.5 Q 43 206.5 44 209.5 Q 45 212.5 45 215.5 Q 45 218.5 44 221 Q 43 223.5 41 225.5 Q 39 227.5 37 228.5 L 34.997 229.503" stroke-linecap="round" />
</g>
<g transform="matrix(1 0 0 1 75 223.41)"  >
<path style="stroke: rgb(0,0,0); stroke-width: 3; stroke-dasharray: none; stroke-linecap: round; stroke-dashoffset: 0; stroke-linejoin: round; stroke-miterlimit: 10; fill: none; fill-rule: nonzero; opacity: 1;"  transform=" translate(-75, -223.41)" d="M 81.003 190.497 Q 81 190.5 78.5 193 Q 76 195.5 75 198 Q 74 200.5 73.5 203.5 Q 73 206.5 72 210 Q 71 213.5 70.5 215.5 Q 70 217.5 69.5 219.5 Q 69 221.5 68.5 224 Q 68 226.5 67 229.5 Q 66 232.5 65.5 235 Q 65 237.5 65 239.5 Q 65 241.5 65 243.5 Q 65 245.5 66 247.5 Q 67 249.5 69 252 Q 71 254.5 73.5 255.5 Q 76 256.5 78 256 Q 80 255.5 82.5 254 L 85.003 252.497" stroke-linecap="round" />
</g>
<g transform="matrix(1 0 0 1 106 221.41)"  >
<path style="stroke: rgb(0,0,0); stroke-width: 3; stroke-dasharray: none; stroke-linecap: round; stroke-dashoffset: 0; stroke-linejoin: round; stroke-miterlimit: 10; fill: none; fill-rule: nonzero; opacity: 1;"  transform=" translate(-106, -221.41)" d="M 88 210.497 Q 88 210.5 88.5 213.5 Q 89 216.5 89 219.5 Q 89 222.5 89 225.5 Q 89 228.5 90.5 230.5 Q 92 232.5 94 231 Q 96 229.5 98 227.5 Q 100 225.5 101 223.5 Q 102 221.5 103.5 224 Q 105 226.5 105 228.5 Q 105 230.5 108 231.5 Q 111 232.5 113 232 Q 115 231.5 117 230 Q 119 228.5 120.5 226.5 Q 122 224.5 123 222.5 Q 124 220.5 124 218 Q 124 215.5 123.5 213.5 L 122.997 211.497" stroke-linecap="round" />
</g>
<g transform="matrix(1 0 0 1 141 226.5)"  >
<path style="stroke: rgb(0,0,0); stroke-width: 3; stroke-dasharray: none; stroke-linecap: round; stroke-dashoffset: 0; stroke-linejoin: round; stroke-miterlimit: 10; fill: none; fill-rule: nonzero; opacity: 1;"  transform=" translate(-141, -226.5)" d="M 131.997 227.5 Q 132 227.5 136 226.5 Q 140 225.5 143 225.5 Q 146 225.5 148 225.5 L 150.003 225.5" stroke-linecap="round" />
</g>
<g transform="matrix(1 0 0 1 140 236.5)"  >
<path style="stroke: rgb(0,0,0); stroke-width: 3; stroke-dasharray: none; stroke-linecap: round; stroke-dashoffset: 0; stroke-linejoin: round; stroke-miterlimit: 10; fill: none; fill-rule: nonzero; opacity: 1;"  transform=" translate(-140, -236.5)" d="M 132.997 237.503 Q 133 237.5 137.5 237.5 Q 142 237.5 144.5 236.5 L 147.003 235.497" stroke-linecap="round" />
</g>
<g transform="matrix(1 0 0 1 178.61 213)"  >
<path style="stroke: rgb(0,0,0); stroke-width: 3; stroke-dasharray: none; stroke-linecap: round; stroke-dashoffset: 0; stroke-linejoin: round; stroke-miterlimit: 10; fill: none; fill-rule: nonzero; opacity: 1;"  transform=" translate(-178.61, -213)" d="M 186 190.497 Q 186 190.5 188 191 Q 190 191.5 190 197 Q 190 202.5 189.5 207 Q 189 211.5 188.5 215.5 Q 188 219.5 188 221.5 Q 188 223.5 188 220.5 Q 188 217.5 187.5 215.5 Q 187 213.5 185.5 212 Q 184 210.5 182 210.5 Q 180 210.5 177 212 Q 174 213.5 171.5 216.5 Q 169 219.5 167 222 Q 165 224.5 164.5 227 Q 164 229.5 166 231.5 Q 168 233.5 171.5 234.5 Q 175 235.5 179 235.5 Q 183 235.5 186 235 Q 189 234.5 191 234 L 193.003 233.497" stroke-linecap="round" />
</g>
<g transform="matrix(1 0 0 1 213.5 214)"  >
<path style="stroke: rgb(0,0,0); stroke-width: 3; stroke-dasharray: none; stroke-linecap: round; stroke-dashoffset: 0; stroke-linejoin: round; stroke-miterlimit: 10; fill: none; fill-rule: nonzero; opacity: 1;"  transform=" translate(-213.5, -214)" d="M 200.997 177.497 Q 201 177.5 203.5 178 Q 206 178.5 209 183.5 Q 212 188.5 215 193.5 Q 218 198.5 220.5 204.5 Q 223 210.5 224.5 216 Q 226 221.5 226 227 Q 226 232.5 225.5 237 Q 225 241.5 223 244.5 Q 221 247.5 218.5 249 L 215.997 250.503" stroke-linecap="round" />
</g>
<g transform="matrix(1 0 0 1 258.5 226.5)"  >
<path style="stroke: rgb(0,0,0); stroke-width: 3; stroke-dasharray: none; stroke-linecap: round; stroke-dashoffset: 0; stroke-linejoin: round; stroke-miterlimit: 10; fill: none; fill-rule: nonzero; opacity: 1;"  transform=" translate(-258.5, -226.5)" d="M 248.997 225.497 Q 249 225.5 254 225.5 Q 259 225.5 261 226 Q 263 226.5 265.5 227 L 268.003 227.503" stroke-linecap="round" />
</g>
<g transform="matrix(1 0 0 1 267.5 242.5)"  >
<path style="stroke: rgb(0,0,0); stroke-width: 3; stroke-dasharray: none; stroke-linecap: round; stroke-dashoffset: 0; stroke-linejoin: round; stroke-miterlimit: 10; fill: none; fill-rule: nonzero; opacity: 1;"  transform=" translate(-267.5, -242.5)" d="M 255.997 238.497 Q 256 238.5 256 241 Q 256 243.5 258.5 244.5 Q 261 245.5 264.5 245.5 Q 268 245.5 271 245.5 Q 274 245.5 276.5 246 L 279.003 246.503" stroke-linecap="round" />
</g>
<g transform="matrix(1 0 0 1 312 262.5)"  >
<path style="stroke: rgb(0,0,0); stroke-width: 3; stroke-dasharray: none; stroke-linecap: round; stroke-dashoffset: 0; stroke-linejoin: round; stroke-miterlimit: 10; fill: none; fill-rule: nonzero; opacity: 1;"  transform=" translate(-312, -262.5)" d="M 311.997 262.5 L 312.003 262.5" stroke-linecap="round" />
</g>
<g transform="matrix(1 0 0 1 341.49 240.19)"  >
<path style="stroke: rgb(0,0,0); stroke-width: 3; stroke-dasharray: none; stroke-linecap: round; stroke-dashoffset: 0; stroke-linejoin: round; stroke-miterlimit: 10; fill: none; fill-rule: nonzero; opacity: 1;"  transform=" translate(-341.49, -240.19)" d="M 346.003 232.497 Q 346 232.5 343 231 Q 340 229.5 336 231 Q 332 232.5 330.5 235 Q 329 237.5 328.5 241 Q 328 244.5 329 247 Q 330 249.5 332.5 250 Q 335 250.5 339.5 250.5 Q 344 250.5 347 250 Q 350 249.5 352 247.5 Q 354 245.5 354.5 243.5 Q 355 241.5 353.5 239.5 Q 352 237.5 349.5 236 L 346.997 234.497" stroke-linecap="round" />
</g>
<g transform="matrix(1 0 0 1 370.5 239)"  >
<path style="stroke: rgb(0,0,0); stroke-width: 3; stroke-dasharray: none; stroke-linecap: round; stroke-dashoffset: 0; stroke-linejoin: round; stroke-miterlimit: 10; fill: none; fill-rule: nonzero; opacity: 1;"  transform=" translate(-370.5, -239)" d="M 361.997 225.497 Q 362 225.5 364.5 225.5 Q 367 225.5 369.5 226.5 Q 372 227.5 374.5 229 Q 377 230.5 378 233 Q 379 235.5 379 237.5 Q 379 239.5 379 242.5 Q 379 245.5 376 247.5 Q 373 249.5 371 250.5 Q 369 251.5 367 252 L 364.997 252.503" stroke-linecap="round" />
</g>
<g transform="matrix(1 0 0 1 373.5 239.1)"  >
<path style="stroke: rgb(0,0,0); stroke-width: 3; stroke-dasharray: none; stroke-linecap: round; stroke-dashoffset: 0; stroke-linejoin: round; stroke-miterlimit: 10; fill: none; fill-rule: nonzero; opacity: 1;"  transform=" translate(-373.5, -239.1)" d="M 360.997 232.503 Q 361 232.5 361.5 230 Q 362 227.5 364 226.5 Q 366 225.5 368 225 Q 370 224.5 372 226 Q 374 227.5 373.5 230 Q 373 232.5 371 234 Q 369 235.5 367 236 Q 365 236.5 367 236.5 Q 369 236.5 371.5 236 Q 374 235.5 376.5 235.5 Q 379 235.5 381.5 237 Q 384 238.5 385 240.5 Q 386 242.5 386 245.5 Q 386 248.5 384 250 Q 382 251.5 379 252.5 Q 376 253.5 374 253.5 Q 372 253.5 370 253.5 L 367.997 253.5" stroke-linecap="round" />
</g>
<g transform="matrix(1 0 0 1 429 243.69)"  >
<path style="stroke: rgb(0,0,0); stroke-width: 3; stroke-dasharray: none; stroke-linecap: round; stroke-dashoffset: 0; stroke-linejoin: round; stroke-miterlimit: 10; fill: none; fill-rule: nonzero; opacity: 1;"  transform=" translate(-429, -243.69)" d="M 422.997 236.497 Q 423 236.5 425.5 235.5 Q 428 234.5 429 237 Q 430 239.5 431 242 Q 432 244.5 432.5 246.5 Q 433 248.5 434 250.5 L 435.003 252.503" stroke-linecap="round" />
</g>
<g transform="matrix(1 0 0 1 440.5 245.5)"  >
<path style="stroke: rgb(0,0,0); stroke-width: 3; stroke-dasharray: none; stroke-linecap: round; stroke-dashoffset: 0; stroke-linejoin: round; stroke-miterlimit: 10; fill: none; fill-rule: nonzero; opacity: 1;"  transform=" translate(-440.5, -245.5)" d="M 426.997 248.503 Q 427 248.5 429 247.5 Q 431 246.5 436 245 Q 441 243.5 445 243 Q 449 242.5 451.5 242.5 L 454.003 242.5" stroke-linecap="round" />
</g>
<g transform="matrix(1 0 0 1 485 254.5)"  >
<path style="stroke: rgb(0,0,0); stroke-width: 3; stroke-dasharray: none; stroke-linecap: round; stroke-dashoffset: 0; stroke-linejoin: round; stroke-miterlimit: 10; fill: none; fill-rule: nonzero; opacity: 1;"  transform=" translate(-485, -254.5)" d="M 484.997 254.5 L 485.003 254.5" stroke-linecap="round" />
</g>
<g transform="matrix(1 0 0 1 503.99 242)"  >
<path style="stroke: rgb(0,0,0); stroke-width: 3; stroke-dasharray: none; stroke-linecap: round; stroke-dashoffset: 0; stroke-linejoin: round; stroke-miterlimit: 10; fill: none; fill-rule: nonzero; opacity: 1;"  transform=" translate(-503.99, -242)" d="M 502.003 232.497 Q 502 232.5 500 232.5 Q 498 232.5 495.5 233.5 Q 493 234.5 493.5 236.5 Q 494 238.5 497.5 238.5 Q 501 238.5 505 239 Q 509 239.5 511.5 240 Q 514 240.5 514.5 242.5 Q 515 244.5 512 247 Q 509 249.5 507 250.5 L 504.997 251.503" stroke-linecap="round" />
</g>
<g transform="matrix(1 0 0 1 510.5 225)"  >
<path style="stroke: rgb(0,0,0); stroke-width: 3; stroke-dasharray: none; stroke-linecap: round; stroke-dashoffset: 0; stroke-linejoin: round; stroke-miterlimit: 10; fill: none; fill-rule: nonzero; opacity: 1;"  transform=" translate(-510.5, -225)" d="M 498.997 229.503 Q 499 229.5 500 227.5 Q 501 225.5 504 224.5 Q 507 223.5 511.5 222.5 Q 516 221.5 519 221 L 522.003 220.497" stroke-linecap="round" />
</g>
<g transform="matrix(1 0 0 1 546.56 237.5)"  >
<path style="stroke: rgb(0,0,0); stroke-width: 3; stroke-dasharray: none; stroke-linecap: round; stroke-dashoffset: 0; stroke-linejoin: round; stroke-miterlimit: 10; fill: none; fill-rule: nonzero; opacity: 1;"  transform=" translate(-546.56, -237.5)" d="M 558.003 215.497 Q 558 215.5 556 215.5 Q 554 215.5 551 217.5 Q 548 219.5 544 222.5 Q 540 225.5 538 229.5 Q 536 233.5 535.5 237.5 Q 535 241.5 535.5 244 Q 536 246.5 538 248 Q 540 249.5 543.5 249.5 Q 547 249.5 550 249 Q 553 248.5 555 247 Q 557 245.5 555 243 Q 553 240.5 550.5 241 Q 548 241.5 546 243.5 Q 544 245.5 543 247.5 Q 542 249.5 542 251.5 Q 542 253.5 545.5 256.5 L 549.003 259.503" stroke-linecap="round" />
</g>
<g transform="matrix(1 0 0 1 30 299.5)"  >
<path style="stroke: rgb(0,0,0); stroke-width: 3; stroke-dasharray: none; stroke-linecap: round; stroke-dashoffset: 0; stroke-linejoin: round; stroke-miterlimit: 10; fill: none; fill-rule: nonzero; opacity: 1;"  transform=" translate(-30, -299.5)" d="M 29.997 299.5 L 30.003 299.5" stroke-linecap="round" />
</g>
<g transform="matrix(1 0 0 1 25.5 312.5)"  >
<path style="stroke: rgb(0,0,0); stroke-width: 3; stroke-dasharray: none; stroke-linecap: round; stroke-dashoffset: 0; stroke-linejoin: round; stroke-miterlimit: 10; fill: none; fill-rule: nonzero; opacity: 1;"  transform=" translate(-25.5, -312.5)" d="M 22.997 297.497 Q 23 297.5 23 299.5 Q 23 301.5 24 304.5 Q 25 307.5 25.5 310.5 Q 26 313.5 27 318 Q 28 322.5 28 325 L 28 327.503" stroke-linecap="round" />
</g>
<g transform="matrix(1 0 0 1 29.91 301.11)"  >
<path style="stroke: rgb(0,0,0); stroke-width: 3; stroke-dasharray: none; stroke-linecap: round; stroke-dashoffset: 0; stroke-linejoin: round; stroke-miterlimit: 10; fill: none; fill-rule: nonzero; opacity: 1;"  transform=" translate(-29.91, -301.11)" d="M 15.997 297.503 Q 16 297.5 20 294.5 Q 24 291.5 28 291 Q 32 290.5 35.5 292.5 Q 39 294.5 41 296.5 Q 43 298.5 43.5 300.5 Q 44 302.5 43 304.5 Q 42 306.5 40.5 308.5 Q 39 310.5 37 311 L 34.997 311.503" stroke-linecap="round" />
</g>
<g transform="matrix(1 0 0 1 68 307.5)"  >
<path style="stroke: rgb(0,0,0); stroke-width: 3; stroke-dasharray: none; stroke-linecap: round; stroke-dashoffset: 0; stroke-linejoin: round; stroke-miterlimit: 10; fill: none; fill-rule: nonzero; opacity: 1;"  transform=" translate(-68, -307.5)" d="M 74.003 277.497 Q 74 277.5 71 278 Q 68 278.5 66 280.5 Q 64 282.5 63 285 Q 62 287.5 62 292.5 Q 62 297.5 62 303.5 Q 62 309.5 63 316.5 Q 64 323.5 64.5 328 Q 65 332.5 65.5 334.5 Q 66 336.5 69.5 337 L 73.003 337.503" stroke-linecap="round" />
</g>
<g transform="matrix(1 0 0 1 102.5 318)"  >
<path style="stroke: rgb(0,0,0); stroke-width: 3; stroke-dasharray: none; stroke-linecap: round; stroke-dashoffset: 0; stroke-linejoin: round; stroke-miterlimit: 10; fill: none; fill-rule: nonzero; opacity: 1;"  transform=" translate(-102.5, -318)" d="M 89 310.497 Q 89 310.5 88 312.5 Q 87 314.5 87 317.5 Q 87 320.5 88.5 323 Q 90 325.5 92 325.5 Q 94 325.5 96 324.5 Q 98 323.5 100 321 Q 102 318.5 103 320.5 Q 104 322.5 106 323 Q 108 323.5 110 323.5 Q 112 323.5 114 322 Q 116 320.5 117 318 L 118.003 315.497" stroke-linecap="round" />
</g>
<g transform="matrix(1 0 0 1 139.5 313.5)"  >
<path style="stroke: rgb(0,0,0); stroke-width: 3; stroke-dasharray: none; stroke-linecap: round; stroke-dashoffset: 0; stroke-linejoin: round; stroke-miterlimit: 10; fill: none; fill-rule: nonzero; opacity: 1;"  transform=" translate(-139.5, -313.5)" d="M 133.997 315.503 Q 134 315.5 137 314.5 Q 140 313.5 142.5 312.5 L 145.003 311.497" stroke-linecap="round" />
</g>
<g transform="matrix(1 0 0 1 143.5 321.5)"  >
<path style="stroke: rgb(0,0,0); stroke-width: 3; stroke-dasharray: none; stroke-linecap: round; stroke-dashoffset: 0; stroke-linejoin: round; stroke-miterlimit: 10; fill: none; fill-rule: nonzero; opacity: 1;"  transform=" translate(-143.5, -321.5)" d="M 137.997 324.503 Q 138 324.5 141 322.5 Q 144 320.5 146.5 319.5 L 149.003 318.497" stroke-linecap="round" />
</g>
<g transform="matrix(1 0 0 1 187.14 315.78)"  >
<path style="stroke: rgb(0,0,0); stroke-width: 3; stroke-dasharray: none; stroke-linecap: round; stroke-dashoffset: 0; stroke-linejoin: round; stroke-miterlimit: 10; fill: none; fill-rule: nonzero; opacity: 1;"  transform=" translate(-187.14, -315.78)" d="M 184.997 307.497 Q 185 307.5 182.5 308.5 Q 180 309.5 181 312 Q 182 314.5 183 317 Q 184 319.5 185 321.5 Q 186 323.5 186.5 325.5 Q 187 327.5 185.5 326 Q 184 324.5 182.5 323 Q 181 321.5 179.5 319 Q 178 316.5 177.5 314.5 Q 177 312.5 181 309 Q 185 305.5 188.5 305 Q 192 304.5 194.5 304.5 L 197.003 304.5" stroke-linecap="round" />
</g>
<g transform="matrix(1 0 0 1 214.44 306.5)"  >
<path style="stroke: rgb(0,0,0); stroke-width: 3; stroke-dasharray: none; stroke-linecap: round; stroke-dashoffset: 0; stroke-linejoin: round; stroke-miterlimit: 10; fill: none; fill-rule: nonzero; opacity: 1;"  transform=" translate(-214.44, -306.5)" d="M 198.997 279.497 Q 199 279.5 203.5 280 Q 208 280.5 212.5 284 Q 217 287.5 221 292 Q 225 296.5 227 301 Q 229 305.5 229.5 309.5 Q 230 313.5 229.5 317.5 Q 229 321.5 227.5 325 Q 226 328.5 224 330.5 Q 222 332.5 220 333 L 217.997 333.503" stroke-linecap="round" />
</g>
<g transform="matrix(1 0 0 1 268 303)"  >
<path style="stroke: rgb(0,0,0); stroke-width: 3; stroke-dasharray: none; stroke-linecap: round; stroke-dashoffset: 0; stroke-linejoin: round; stroke-miterlimit: 10; fill: none; fill-rule: nonzero; opacity: 1;"  transform=" translate(-268, -303)" d="M 258.997 303.5 Q 259 303.5 263 303 Q 267 302.5 270 302.5 Q 273 302.5 275 302.5 L 277.003 302.5" stroke-linecap="round" />
</g>
<g transform="matrix(1 0 0 1 278 317.5)"  >
<path style="stroke: rgb(0,0,0); stroke-width: 3; stroke-dasharray: none; stroke-linecap: round; stroke-dashoffset: 0; stroke-linejoin: round; stroke-miterlimit: 10; fill: none; fill-rule: nonzero; opacity: 1;"  transform=" translate(-278, -317.5)" d="M 269.997 319.503 Q 270 319.5 274 318.5 Q 278 317.5 280 316.5 Q 282 315.5 284 315.5 L 286.003 315.5" stroke-linecap="round" />
</g>
<g transform="matrix(1 0 0 1 312 322.5)"  >
<path style="stroke: rgb(0,0,0); stroke-width: 3; stroke-dasharray: none; stroke-linecap: round; stroke-dashoffset: 0; stroke-linejoin: round; stroke-miterlimit: 10; fill: none; fill-rule: nonzero; opacity: 1;"  transform=" translate(-312, -322.5)" d="M 311.997 322.5 L 312.003 322.5" stroke-linecap="round" />
</g>
<g transform="matrix(1 0 0 1 333.5 309.5)"  >
<path style="stroke: rgb(0,0,0); stroke-width: 3; stroke-dasharray: none; stroke-linecap: round; stroke-dashoffset: 0; stroke-linejoin: round; stroke-miterlimit: 10; fill: none; fill-rule: nonzero; opacity: 1;"  transform=" translate(-333.5, -309.5)" d="M 322.997 296.5 Q 323 296.5 324.5 295 Q 326 293.5 328 293.5 Q 330 293.5 333 294.5 Q 336 295.5 338 297.5 Q 340 299.5 341.5 301.5 Q 343 303.5 343.5 306 Q 344 308.5 344 311.5 Q 344 314.5 343 317 Q 342 319.5 340 322 Q 338 324.5 337 322 Q 336 319.5 337 317.5 Q 338 315.5 340 317.5 Q 342 319.5 343 322.5 L 344.003 325.503" stroke-linecap="round" />
</g>
<g transform="matrix(1 0 0 1 360.66 314.11)"  >
<path style="stroke: rgb(0,0,0); stroke-width: 3; stroke-dasharray: none; stroke-linecap: round; stroke-dashoffset: 0; stroke-linejoin: round; stroke-miterlimit: 10; fill: none; fill-rule: nonzero; opacity: 1;"  transform=" translate(-360.66, -314.11)" d="M 349.997 302.497 Q 350 302.5 348.5 300.5 Q 347 298.5 352 299 Q 357 299.5 361.5 300 Q 366 300.5 368.5 301.5 Q 371 302.5 372.5 305.5 Q 374 308.5 373 311.5 Q 372 314.5 370 317.5 Q 368 320.5 366.5 323.5 Q 365 326.5 363.5 328 L 361.997 329.503" stroke-linecap="round" />
</g>
<g transform="matrix(1 0 0 1 415 315.5)"  >
<path style="stroke: rgb(0,0,0); stroke-width: 3; stroke-dasharray: none; stroke-linecap: round; stroke-dashoffset: 0; stroke-linejoin: round; stroke-miterlimit: 10; fill: none; fill-rule: nonzero; opacity: 1;"  transform=" translate(-415, -315.5)" d="M 410.997 302.497 Q 411 302.5 411.5 305.5 Q 412 308.5 413 313 Q 414 317.5 414.5 321.5 Q 415 325.5 417 327 L 419.003 328.503" stroke-linecap="round" />
</g>
<g transform="matrix(1 0 0 1 416.5 319)"  >
<path style="stroke: rgb(0,0,0); stroke-width: 3; stroke-dasharray: none; stroke-linecap: round; stroke-dashoffset: 0; stroke-linejoin: round; stroke-miterlimit: 10; fill: none; fill-rule: nonzero; opacity: 1;"  transform=" translate(-416.5, -319)" d="M 405.997 322.503 Q 406 322.5 410 321 Q 414 319.5 418 318.5 Q 422 317.5 424.5 316.5 L 427.003 315.497" stroke-linecap="round" />
</g>
<g transform="matrix(1 0 0 1 464 331.5)"  >
<path style="stroke: rgb(0,0,0); stroke-width: 3; stroke-dasharray: none; stroke-linecap: round; stroke-dashoffset: 0; stroke-linejoin: round; stroke-miterlimit: 10; fill: none; fill-rule: nonzero; opacity: 1;"  transform=" translate(-464, -331.5)" d="M 465.997 330.5 Q 466 330.5 464 331.5 L 462.003 332.5" stroke-linecap="round" />
</g>
<g transform="matrix(1 0 0 1 483.5 317)"  >
<path style="stroke: rgb(0,0,0); stroke-width: 3; stroke-dasharray: none; stroke-linecap: round; stroke-dashoffset: 0; stroke-linejoin: round; stroke-miterlimit: 10; fill: none; fill-rule: nonzero; opacity: 1;"  transform=" translate(-483.5, -317)" d="M 480.997 302.497 Q 481 302.5 481 306 Q 481 309.5 481.5 313 Q 482 316.5 482.5 320 Q 483 323.5 483 326 Q 483 328.5 484.5 330 L 486.003 331.503" stroke-linecap="round" />
</g>
<g transform="matrix(1 0 0 1 507 309)"  >
<path style="stroke: rgb(0,0,0); stroke-width: 3; stroke-dasharray: none; stroke-linecap: round; stroke-dashoffset: 0; stroke-linejoin: round; stroke-miterlimit: 10; fill: none; fill-rule: nonzero; opacity: 1;"  transform=" translate(-507, -309)" d="M 504.003 299.497 Q 504 299.5 502.5 302.5 Q 501 305.5 500.5 307.5 Q 500 309.5 500 312 Q 500 314.5 502 316.5 Q 504 318.5 507 318.5 Q 510 318.5 512 318.5 L 514.003 318.5" stroke-linecap="round" />
</g>
<g transform="matrix(1 0 0 1 520.5 322.5)"  >
<path style="stroke: rgb(0,0,0); stroke-width: 3; stroke-dasharray: none; stroke-linecap: round; stroke-dashoffset: 0; stroke-linejoin: round; stroke-miterlimit: 10; fill: none; fill-rule: nonzero; opacity: 1;"  transform=" translate(-520.5, -322.5)" d="M 523.003 307.497 Q 523 307.5 521.5 311.5 Q 520 315.5 519 319.5 Q 518 323.5 518 326.5 Q 518 329.5 518 331.5 Q 518 333.5 519 335.5 L 520.003 337.503" stroke-linecap="round" />
</g>
<g transform="matrix(1 0 0 1 596 227.5)"  >
<path style="stroke: rgb(0,0,0); stroke-width: 3; stroke-dasharray: none; stroke-linecap: round; stroke-dashoffset: 0; stroke-linejoin: round; stroke-miterlimit: 10; fill: none; fill-rule: nonzero; opacity: 1;"  transform=" translate(-596, -227.5)" d="M 587.997 228.5 Q 588 228.5 591.5 227.5 Q 595 226.5 597.5 226.5 Q 600 226.5 602 227.5 L 604.003 228.503" stroke-linecap="round" />
</g>
<g transform="matrix(1 0 0 1 590 243)"  >
<path style="stroke: rgb(0,0,0); stroke-width: 3; stroke-dasharray: none; stroke-linecap: round; stroke-dashoffset: 0; stroke-linejoin: round; stroke-miterlimit: 10; fill: none; fill-rule: nonzero; opacity: 1;"  transform=" translate(-590, -243)" d="M 585.997 244.503 Q 586 244.5 588 243.5 Q 590 242.5 592 242 L 594.003 241.497" stroke-linecap="round" />
</g>
<g transform="matrix(1 0 0 1 636 257.5)"  >
<path style="stroke: rgb(0,0,0); stroke-width: 3; stroke-dasharray: none; stroke-linecap: round; stroke-dashoffset: 0; stroke-linejoin: round; stroke-miterlimit: 10; fill: none; fill-rule: nonzero; opacity: 1;"  transform=" translate(-636, -257.5)" d="M 635.997 257.5 L 636.003 257.5" stroke-linecap="round" />
</g>
<g transform="matrix(1 0 0 1 667.4 228.66)"  >
<path style="stroke: rgb(0,0,0); stroke-width: 3; stroke-dasharray: none; stroke-linecap: round; stroke-dashoffset: 0; stroke-linejoin: round; stroke-miterlimit: 10; fill: none; fill-rule: nonzero; opacity: 1;"  transform=" translate(-667.4, -228.66)" d="M 654.997 217.497 Q 655 217.5 656 215.5 Q 657 213.5 658.5 217.5 Q 660 221.5 660 223.5 Q 660 225.5 662.5 227 Q 665 228.5 667 228 Q 669 227.5 671 227.5 Q 673 227.5 676 229 Q 679 230.5 679.5 232.5 Q 680 234.5 678.5 237.5 Q 677 240.5 674 242 Q 671 243.5 668.5 242 L 665.997 240.497" stroke-linecap="round" />
</g>
<g transform="matrix(1 0 0 1 664.5 211.5)"  >
<path style="stroke: rgb(0,0,0); stroke-width: 3; stroke-dasharray: none; stroke-linecap: round; stroke-dashoffset: 0; stroke-linejoin: round; stroke-miterlimit: 10; fill: none; fill-rule: nonzero; opacity: 1;"  transform=" translate(-664.5, -211.5)" d="M 658.997 214.503 Q 659 214.5 660.5 212.5 Q 662 210.5 666 209.5 L 670.003 208.497" stroke-linecap="round" />
</g>
<g transform="matrix(1 0 0 1 709.44 221.36)"  >
<path style="stroke: rgb(0,0,0); stroke-width: 3; stroke-dasharray: none; stroke-linecap: round; stroke-dashoffset: 0; stroke-linejoin: round; stroke-miterlimit: 10; fill: none; fill-rule: nonzero; opacity: 1;"  transform=" translate(-709.44, -221.36)" d="M 705.997 210.503 Q 706 210.5 706.5 208.5 Q 707 206.5 707.5 204.5 Q 708 202.5 708.5 200.5 Q 709 198.5 706 203 Q 703 207.5 701.5 211.5 Q 700 215.5 699.5 219.5 Q 699 223.5 699.5 225.5 Q 700 227.5 702 228.5 Q 704 229.5 706.5 229 Q 709 228.5 712 227 Q 715 225.5 717 224 Q 719 222.5 719.5 220.5 Q 720 218.5 717.5 222.5 Q 715 226.5 714.5 230 Q 714 233.5 714 236 Q 714 238.5 714 241 L 714 243.503" stroke-linecap="round" />
</g>
<g transform="matrix(1 0 0 1 575.5 314.59)"  >
<path style="stroke: rgb(0,0,0); stroke-width: 3; stroke-dasharray: none; stroke-linecap: round; stroke-dashoffset: 0; stroke-linejoin: round; stroke-miterlimit: 10; fill: none; fill-rule: nonzero; opacity: 1;"  transform=" translate(-575.5, -314.59)" d="M 562.997 317.503 Q 563 317.5 570 315 Q 577 312.5 580.5 312 Q 584 311.5 586 312.5 L 588.003 313.503" stroke-linecap="round" />
</g>
<g transform="matrix(1 0 0 1 575.5 333.5)"  >
<path style="stroke: rgb(0,0,0); stroke-width: 3; stroke-dasharray: none; stroke-linecap: round; stroke-dashoffset: 0; stroke-linejoin: round; stroke-miterlimit: 10; fill: none; fill-rule: nonzero; opacity: 1;"  transform=" translate(-575.5, -333.5)" d="M 569.997 334.5 Q 570 334.5 572.5 333.5 Q 575 332.5 578 332.5 L 581.003 332.5" stroke-linecap="round" />
</g>
<g transform="matrix(1 0 0 1 701 302.5)"  >
<path style="stroke: rgb(0,0,0); stroke-width: 3; stroke-dasharray: none; stroke-linecap: round; stroke-dashoffset: 0; stroke-linejoin: round; stroke-miterlimit: 10; fill: none; fill-rule: nonzero; opacity: 1;"  transform=" translate(-701, -302.5)" d="M 700.997 302.5 L 701.003 302.5" stroke-linecap="round" />
</g>
<g transform="matrix(1 0 0 1 703.5 316.5)"  >
<path style="stroke: rgb(0,0,0); stroke-width: 3; stroke-dasharray: none; stroke-linecap: round; stroke-dashoffset: 0; stroke-linejoin: round; stroke-miterlimit: 10; fill: none; fill-rule: nonzero; opacity: 1;"  transform=" translate(-703.5, -316.5)" d="M 699.997 301.497 Q 700 301.5 702.5 306 Q 705 310.5 705.5 315 Q 706 319.5 706.5 323.5 Q 707 327.5 707 329.5 L 707 331.503" stroke-linecap="round" />
</g>
<g transform="matrix(1 0 0 1 660.5 313.8)"  >
<path style="stroke: rgb(0,0,0); stroke-width: 3; stroke-dasharray: none; stroke-linecap: round; stroke-dashoffset: 0; stroke-linejoin: round; stroke-miterlimit: 10; fill: none; fill-rule: nonzero; opacity: 1;"  transform=" translate(-660.5, -313.8)" d="M 652.997 310.497 Q 653 310.5 653.5 308.5 Q 654 306.5 654.5 309.5 Q 655 312.5 655 314.5 Q 655 316.5 656.5 318.5 Q 658 320.5 660.5 320.5 Q 663 320.5 665.5 320 L 668.003 319.497" stroke-linecap="round" />
</g>
<g transform="matrix(1 0 0 1 669.5 318)"  >
<path style="stroke: rgb(0,0,0); stroke-width: 3; stroke-dasharray: none; stroke-linecap: round; stroke-dashoffset: 0; stroke-linejoin: round; stroke-miterlimit: 10; fill: none; fill-rule: nonzero; opacity: 1;"  transform=" translate(-669.5, -318)" d="M 672.003 306.497 Q 672 306.5 671.5 309 Q 671 311.5 670.5 315 Q 670 318.5 669 321.5 Q 668 324.5 667.5 327 L 666.997 329.503" stroke-linecap="round" />
</g>
<g transform="matrix(1 0 0 1 629.5 336.5)"  >
<path style="stroke: rgb(0,0,0); stroke-width: 3; stroke-dasharray: none; stroke-linecap: round; stroke-dashoffset: 0; stroke-linejoin: round; stroke-miterlimit: 10; fill: none; fill-rule: nonzero; opacity: 1;"  transform=" translate(-629.5, -336.5)" d="M 626.997 337.5 Q 627 337.5 629.5 336.5 L 632.003 335.5" stroke-linecap="round" />
</g>
<g transform="matrix(1 0 0 1 715.5 224.17)"  >
<path style="stroke: rgb(0,0,0); stroke-width: 3; stroke-dasharray: none; stroke-linecap: round; stroke-dashoffset: 0; stroke-linejoin: round; stroke-miterlimit: 10; fill: none; fill-rule: nonzero; opacity: 1;"  transform=" translate(-715.5, -224.17)" d="M 716.997 209.497 Q 717 209.5 716.5 212 Q 716 214.5 717 218 Q 718 221.5 719 224 Q 720 226.5 720.5 229 Q 721 231.5 721.5 234 Q 722 236.5 722 238.5 Q 722 240.5 722 243 Q 722 245.5 721.5 247.5 Q 721 249.5 719.5 252 Q 718 254.5 717.5 256.5 Q 717 258.5 716.5 255 Q 716 251.5 716 249.5 Q 716 247.5 715.5 244.5 Q 715 241.5 715 238.5 Q 715 235.5 715 233 Q 715 230.5 715 227.5 Q 715 224.5 714.5 221.5 Q 714 218.5 713 215 Q 712 211.5 711.5 208 Q 711 204.5 710 202 Q 709 199.5 709 197.5 Q 709 195.5 709 193 L 709 190.497" stroke-linecap="round" />
</g>
</svg>