<?xml version="1.0" encoding="UTF-8" standalone="no" ?>
<!DOCTYPE svg PUBLIC "-//W3C//DTD SVG 1.1//EN" "http://www.w3.org/Graphics/SVG/1.1/DTD/svg11.dtd">
<svg xmlns="http://www.w3.org/2000/svg" xmlns:xlink="http://www.w3.org/1999/xlink" version="1.1" width="864" height="456" viewBox="0 0 864 456" xml:space="preserve">
<desc>Created with Fabric.js 4.3.1</desc>
<defs>
</defs>
<g transform="matrix(1 0 0 1 58.5 41.5)"  >
<path style="stroke: rgb(0,0,0); stroke-width: 3; stroke-dasharray: none; stroke-linecap: round; stroke-dashoffset: 0; stroke-linejoin: round; stroke-miterlimit: 10; fill: none; fill-rule: nonzero; opacity: 1;"  transform=" translate(-58.5, -41.5)" d="M 63.003 27.497 Q 63 27.5 58 28.5 Q 53 29.5 50.5 32 Q 48 34.5 46 37.5 Q 44 40.5 44 43 Q 44 45.5 45 48 Q 46 50.5 48 52 Q 50 53.5 52 54.5 Q 54 55.5 56.5 55.5 Q 59 55.5 61.5 55.5 Q 64 55.5 66 54.5 Q 68 53.5 69.5 51.5 Q 71 49.5 72 47 Q 73 44.5 73 41.5 Q 73 38.5 72.5 35.5 Q 72 32.5 70 30 L 67.997 27.497" stroke-linecap="round" />
</g>
<g transform="matrix(1 0 0 1 63.5 40.5)"  >
<path style="stroke: rgb(0,0,0); stroke-width: 3; stroke-dasharray: none; stroke-linecap: round; stroke-dashoffset: 0; stroke-linejoin: round; stroke-miterlimit: 10; fill: none; fill-rule: nonzero; opacity: 1;"  transform=" translate(-63.5, -40.5)" d="M 52.997 42.503 Q 53 42.5 55.5 42 Q 58 41.5 61 40.5 Q 64 39.5 66.5 39.5 Q 69 39.5 71.5 39 L 74.003 38.497" stroke-linecap="round" />
</g>
<g transform="matrix(1 0 0 1 97.5 44)"  >
<path style="stroke: rgb(0,0,0); stroke-width: 3; stroke-dasharray: none; stroke-linecap: round; stroke-dashoffset: 0; stroke-linejoin: round; stroke-miterlimit: 10; fill: none; fill-rule: nonzero; opacity: 1;"  transform=" translate(-97.5, -44)" d="M 94.997 45.5 Q 95 45.5 97.5 44 L 100.003 42.5" stroke-linecap="round" />
</g>
<g transform="matrix(1 0 0 1 95 52.5)"  >
<path style="stroke: rgb(0,0,0); stroke-width: 3; stroke-dasharray: none; stroke-linecap: round; stroke-dashoffset: 0; stroke-linejoin: round; stroke-miterlimit: 10; fill: none; fill-rule: nonzero; opacity: 1;"  transform=" translate(-95, -52.5)" d="M 89.997 53.503 Q 90 53.5 93 53 Q 96 52.5 98 52 L 100.003 51.497" stroke-linecap="round" />
</g>
<g transform="matrix(1 0 0 1 90 28.43)"  >
<path style="stroke: rgb(0,0,0); stroke-width: 3; stroke-dasharray: none; stroke-linecap: round; stroke-dashoffset: 0; stroke-linejoin: round; stroke-miterlimit: 10; fill: none; fill-rule: nonzero; opacity: 1;"  transform=" translate(-90, -28.43)" d="M 94.003 21.497 Q 94 21.5 91 18.5 Q 88 15.5 87.5 19.5 Q 87 23.5 87 27 Q 87 30.5 87 33.5 Q 87 36.5 86.5 38.5 L 85.997 40.503" stroke-linecap="round" />
</g>
<g transform="matrix(1 0 0 1 87.5 25)"  >
<path style="stroke: rgb(0,0,0); stroke-width: 3; stroke-dasharray: none; stroke-linecap: round; stroke-dashoffset: 0; stroke-linejoin: round; stroke-miterlimit: 10; fill: none; fill-rule: nonzero; opacity: 1;"  transform=" translate(-87.5, -25)" d="M 90.003 21.497 Q 90 21.5 89.5 23.5 Q 89 25.5 87 27 L 84.997 28.503" stroke-linecap="round" />
</g>
<g transform="matrix(1 0 0 1 78.5 26.5)"  >
<path style="stroke: rgb(0,0,0); stroke-width: 3; stroke-dasharray: none; stroke-linecap: round; stroke-dashoffset: 0; stroke-linejoin: round; stroke-miterlimit: 10; fill: none; fill-rule: nonzero; opacity: 1;"  transform=" translate(-78.5, -26.5)" d="M 71.997 25.497 Q 72 25.5 74.5 25.5 Q 77 25.5 79 26 Q 81 26.5 83 27 L 85.003 27.503" stroke-linecap="round" />
</g>
<g transform="matrix(1 0 0 1 130 48.9)"  >
<path style="stroke: rgb(0,0,0); stroke-width: 3; stroke-dasharray: none; stroke-linecap: round; stroke-dashoffset: 0; stroke-linejoin: round; stroke-miterlimit: 10; fill: none; fill-rule: nonzero; opacity: 1;"  transform=" translate(-130, -48.9)" d="M 135.003 41.5 Q 135 41.5 133.5 39 Q 132 36.5 130 36.5 Q 128 36.5 125.5 40 Q 123 43.5 122.5 46.5 Q 122 49.5 122 53 Q 122 56.5 122.5 58.5 Q 123 60.5 125.5 61 Q 128 61.5 129.5 60 Q 131 58.5 131.5 56.5 Q 132 54.5 132.5 52 Q 133 49.5 133 46.5 Q 133 43.5 134.5 48 Q 136 52.5 137 55.5 L 138.003 58.503" stroke-linecap="round" />
</g>
<g transform="matrix(1 0 0 1 156.5 45.66)"  >
<path style="stroke: rgb(0,0,0); stroke-width: 3; stroke-dasharray: none; stroke-linecap: round; stroke-dashoffset: 0; stroke-linejoin: round; stroke-miterlimit: 10; fill: none; fill-rule: nonzero; opacity: 1;"  transform=" translate(-156.5, -45.66)" d="M 145.997 40.497 Q 146 40.5 148.5 43.5 Q 151 46.5 152 49.5 Q 153 52.5 153.5 55.5 Q 154 58.5 152.5 56 Q 151 53.5 151 50.5 Q 151 47.5 151.5 44.5 Q 152 41.5 153.5 39.5 Q 155 37.5 157 36.5 Q 159 35.5 161 34.5 Q 163 33.5 165 33.5 L 167.003 33.5" stroke-linecap="round" />
</g>
<g transform="matrix(1 0 0 1 182 63.35)"  >
<path style="stroke: rgb(0,0,0); stroke-width: 3; stroke-dasharray: none; stroke-linecap: round; stroke-dashoffset: 0; stroke-linejoin: round; stroke-miterlimit: 10; fill: none; fill-rule: nonzero; opacity: 1;"  transform=" translate(-182, -63.35)" d="M 193.003 47.503 Q 193 47.5 193 45.5 Q 193 43.5 192 41.5 Q 191 39.5 189 39 Q 187 38.5 184.5 39 Q 182 39.5 179.5 40.5 Q 177 41.5 175.5 43 Q 174 44.5 173.5 47.5 Q 173 50.5 174.5 53.5 Q 176 56.5 178.5 58 Q 181 59.5 181 62 Q 181 64.5 181.5 68 Q 182 71.5 182.5 75 Q 183 78.5 182.5 81.5 Q 182 84.5 179 86.5 Q 176 88.5 173.5 87 L 170.997 85.497" stroke-linecap="round" />
</g>
<g transform="matrix(1 0 0 1 214 49.23)"  >
<path style="stroke: rgb(0,0,0); stroke-width: 3; stroke-dasharray: none; stroke-linecap: round; stroke-dashoffset: 0; stroke-linejoin: round; stroke-miterlimit: 10; fill: none; fill-rule: nonzero; opacity: 1;"  transform=" translate(-214, -49.23)" d="M 198.997 44.497 Q 199 44.5 201 45.5 Q 203 46.5 203.5 49 Q 204 51.5 204 54 Q 204 56.5 204 58.5 Q 204 60.5 203 57.5 Q 202 54.5 202 51.5 Q 202 48.5 202.5 45 Q 203 41.5 204 39 Q 205 36.5 207 35.5 Q 209 34.5 211 39 Q 213 43.5 214 47 Q 215 50.5 216 53.5 Q 217 56.5 217.5 58.5 Q 218 60.5 218 58.5 Q 218 56.5 218 54 Q 218 51.5 219 48 Q 220 44.5 221.5 42.5 Q 223 40.5 225 41.5 Q 227 42.5 227.5 46 Q 228 49.5 228.5 53.5 Q 229 57.5 229 60.5 L 229 63.503" stroke-linecap="round" />
</g>
<g transform="matrix(1 0 0 1 247.5 53.6)"  >
<path style="stroke: rgb(0,0,0); stroke-width: 3; stroke-dasharray: none; stroke-linecap: round; stroke-dashoffset: 0; stroke-linejoin: round; stroke-miterlimit: 10; fill: none; fill-rule: nonzero; opacity: 1;"  transform=" translate(-247.5, -53.6)" d="M 248.003 47.497 Q 248 47.5 248 45.5 Q 248 43.5 246 45 Q 244 46.5 242.5 48 Q 241 49.5 240.5 52 Q 240 54.5 240 56.5 Q 240 58.5 240.5 60.5 Q 241 62.5 243 63 Q 245 63.5 246 61 Q 247 58.5 247 56.5 Q 247 54.5 247.5 52.5 Q 248 50.5 249.5 53.5 Q 251 56.5 253 58.5 L 255.003 60.503" stroke-linecap="round" />
</g>
<g transform="matrix(1 0 0 1 272.13 53.63)"  >
<path style="stroke: rgb(0,0,0); stroke-width: 3; stroke-dasharray: none; stroke-linecap: round; stroke-dashoffset: 0; stroke-linejoin: round; stroke-miterlimit: 10; fill: none; fill-rule: nonzero; opacity: 1;"  transform=" translate(-272.13, -53.63)" d="M 260.997 54.497 Q 261 54.5 260.5 51.5 Q 260 48.5 263.5 49 Q 267 49.5 270 51 Q 273 52.5 276 54 Q 279 55.5 281.5 57 L 284.003 58.503" stroke-linecap="round" />
</g>
<g transform="matrix(1 0 0 1 270 53)"  >
<path style="stroke: rgb(0,0,0); stroke-width: 3; stroke-dasharray: none; stroke-linecap: round; stroke-dashoffset: 0; stroke-linejoin: round; stroke-miterlimit: 10; fill: none; fill-rule: nonzero; opacity: 1;"  transform=" translate(-270, -53)" d="M 279.003 44.497 Q 279 44.5 275.5 49 Q 272 53.5 268.5 56 Q 265 58.5 263 60 L 260.997 61.503" stroke-linecap="round" />
</g>
<g transform="matrix(1 0 0 1 318.44 47.5)"  >
<path style="stroke: rgb(0,0,0); stroke-width: 3; stroke-dasharray: none; stroke-linecap: round; stroke-dashoffset: 0; stroke-linejoin: round; stroke-miterlimit: 10; fill: none; fill-rule: nonzero; opacity: 1;"  transform=" translate(-318.44, -47.5)" d="M 316.997 28.497 Q 317 28.5 317.5 35 Q 318 41.5 318.5 46 Q 319 50.5 319 53.5 Q 319 56.5 319.5 59 Q 320 61.5 319.5 64 L 318.997 66.503" stroke-linecap="round" />
</g>
<g transform="matrix(1 0 0 1 329.92 31.94)"  >
<path style="stroke: rgb(0,0,0); stroke-width: 3; stroke-dasharray: none; stroke-linecap: round; stroke-dashoffset: 0; stroke-linejoin: round; stroke-miterlimit: 10; fill: none; fill-rule: nonzero; opacity: 1;"  transform=" translate(-329.91, -31.94)" d="M 314.997 25.503 Q 315 25.5 315 22 Q 315 18.5 318.5 17 Q 322 15.5 324.5 15.5 Q 327 15.5 330 16 Q 333 16.5 335 17.5 Q 337 18.5 339 20.5 Q 341 22.5 342.5 25 Q 344 27.5 344.5 30.5 Q 345 33.5 344 36.5 Q 343 39.5 341 42 Q 339 44.5 337 45.5 Q 335 46.5 332.5 47 Q 330 47.5 327 48 Q 324 48.5 322 48 L 319.997 47.497" stroke-linecap="round" />
</g>
<g transform="matrix(1 0 0 1 358 48.19)"  >
<path style="stroke: rgb(0,0,0); stroke-width: 3; stroke-dasharray: none; stroke-linecap: round; stroke-dashoffset: 0; stroke-linejoin: round; stroke-miterlimit: 10; fill: none; fill-rule: nonzero; opacity: 1;"  transform=" translate(-358, -48.19)" d="M 371.003 19.497 Q 371 19.5 369 18 Q 367 16.5 365.5 18 Q 364 19.5 362 21.5 Q 360 23.5 358.5 26 Q 357 28.5 355 31 Q 353 33.5 351 36.5 Q 349 39.5 347.5 43 Q 346 46.5 345.5 50 Q 345 53.5 345 56 Q 345 58.5 346 61.5 Q 347 64.5 349 67 Q 351 69.5 352.5 71.5 Q 354 73.5 355.5 75 Q 357 76.5 358.5 78 L 360.003 79.503" stroke-linecap="round" />
</g>
<g transform="matrix(1 0 0 1 374 47.5)"  >
<path style="stroke: rgb(0,0,0); stroke-width: 3; stroke-dasharray: none; stroke-linecap: round; stroke-dashoffset: 0; stroke-linejoin: round; stroke-miterlimit: 10; fill: none; fill-rule: nonzero; opacity: 1;"  transform=" translate(-374, -47.5)" d="M 369.997 42.497 Q 370 42.5 372.5 45 Q 375 47.5 376.5 50 L 378.003 52.503" stroke-linecap="round" />
</g>
<g transform="matrix(1 0 0 1 375.5 53)"  >
<path style="stroke: rgb(0,0,0); stroke-width: 3; stroke-dasharray: none; stroke-linecap: round; stroke-dashoffset: 0; stroke-linejoin: round; stroke-miterlimit: 10; fill: none; fill-rule: nonzero; opacity: 1;"  transform=" translate(-375.5, -53)" d="M 388.003 45.497 Q 388 45.5 384.5 47.5 Q 381 49.5 378.5 51 Q 376 52.5 372 54.5 Q 368 56.5 365.5 58.5 L 362.997 60.503" stroke-linecap="round" />
</g>
<g transform="matrix(1 0 0 1 398.91 62)"  >
<path style="stroke: rgb(0,0,0); stroke-width: 3; stroke-dasharray: none; stroke-linecap: round; stroke-dashoffset: 0; stroke-linejoin: round; stroke-miterlimit: 10; fill: none; fill-rule: nonzero; opacity: 1;"  transform=" translate(-398.92, -62)" d="M 398.003 57.497 Q 398 57.5 399 59.5 Q 400 61.5 399.5 64 L 398.997 66.503" stroke-linecap="round" />
</g>
<g transform="matrix(1 0 0 1 427 56)"  >
<path style="stroke: rgb(0,0,0); stroke-width: 3; stroke-dasharray: none; stroke-linecap: round; stroke-dashoffset: 0; stroke-linejoin: round; stroke-miterlimit: 10; fill: none; fill-rule: nonzero; opacity: 1;"  transform=" translate(-427, -56)" d="M 419.997 45.497 Q 420 45.5 421.5 49 Q 423 52.5 425 55.5 Q 427 58.5 429 61 Q 431 63.5 432.5 65 L 434.003 66.503" stroke-linecap="round" />
</g>
<g transform="matrix(1 0 0 1 438 62)"  >
<path style="stroke: rgb(0,0,0); stroke-width: 3; stroke-dasharray: none; stroke-linecap: round; stroke-dashoffset: 0; stroke-linejoin: round; stroke-miterlimit: 10; fill: none; fill-rule: nonzero; opacity: 1;"  transform=" translate(-438, -62)" d="M 446.003 49.497 Q 446 49.5 444 50.5 Q 442 51.5 440.5 54 Q 439 56.5 437 59.5 Q 435 62.5 433.5 65.5 Q 432 68.5 431 71.5 L 429.997 74.503" stroke-linecap="round" />
</g>
<g transform="matrix(1 0 0 1 385.5 64)"  >
<path style="stroke: rgb(0,0,0); stroke-width: 3; stroke-dasharray: none; stroke-linecap: round; stroke-dashoffset: 0; stroke-linejoin: round; stroke-miterlimit: 10; fill: none; fill-rule: nonzero; opacity: 1;"  transform=" translate(-385.5, -64)" d="M 378.997 52.497 Q 379 52.5 381 54.5 Q 383 56.5 385 59.5 Q 387 62.5 388 64.5 Q 389 66.5 389.5 68.5 Q 390 70.5 391 73 L 392.003 75.503" stroke-linecap="round" />
</g>
<g transform="matrix(1 0 0 1 456 43.5)"  >
<path style="stroke: rgb(0,0,0); stroke-width: 3; stroke-dasharray: none; stroke-linecap: round; stroke-dashoffset: 0; stroke-linejoin: round; stroke-miterlimit: 10; fill: none; fill-rule: nonzero; opacity: 1;"  transform=" translate(-456, -43.5)" d="M 455.997 43.5 L 456.003 43.5" stroke-linecap="round" />
</g>
<g transform="matrix(1 0 0 1 457 76.5)"  >
<path style="stroke: rgb(0,0,0); stroke-width: 3; stroke-dasharray: none; stroke-linecap: round; stroke-dashoffset: 0; stroke-linejoin: round; stroke-miterlimit: 10; fill: none; fill-rule: nonzero; opacity: 1;"  transform=" translate(-457, -76.5)" d="M 462.003 73.497 Q 462 73.5 460 75 Q 458 76.5 455 78 L 451.997 79.503" stroke-linecap="round" />
</g>
<g transform="matrix(1 0 0 1 492.5 47.69)"  >
<path style="stroke: rgb(0,0,0); stroke-width: 3; stroke-dasharray: none; stroke-linecap: round; stroke-dashoffset: 0; stroke-linejoin: round; stroke-miterlimit: 10; fill: none; fill-rule: nonzero; opacity: 1;"  transform=" translate(-492.5, -47.69)" d="M 502.003 35.497 Q 502 35.5 499.5 32.5 Q 497 29.5 493.5 31 Q 490 32.5 487.5 36 Q 485 39.5 483 43 Q 481 46.5 480.5 50.5 Q 480 54.5 480 57.5 Q 480 60.5 481 62.5 Q 482 64.5 484.5 65 Q 487 65.5 489.5 65 Q 492 64.5 495 62.5 Q 498 60.5 500.5 58.5 Q 503 56.5 504 53.5 Q 505 50.5 505 44.5 Q 505 38.5 502.5 37.5 L 499.997 36.497" stroke-linecap="round" />
</g>
<g transform="matrix(1 0 0 1 493 51.5)"  >
<path style="stroke: rgb(0,0,0); stroke-width: 3; stroke-dasharray: none; stroke-linecap: round; stroke-dashoffset: 0; stroke-linejoin: round; stroke-miterlimit: 10; fill: none; fill-rule: nonzero; opacity: 1;"  transform=" translate(-493, -51.5)" d="M 479.997 53.5 Q 480 53.5 483 53 Q 486 52.5 488.5 52.5 Q 491 52.5 493.5 52 Q 496 51.5 498.5 51 Q 501 50.5 503.5 50 L 506.003 49.497" stroke-linecap="round" />
</g>
<g transform="matrix(1 0 0 1 519.5 53.71)"  >
<path style="stroke: rgb(0,0,0); stroke-width: 3; stroke-dasharray: none; stroke-linecap: round; stroke-dashoffset: 0; stroke-linejoin: round; stroke-miterlimit: 10; fill: none; fill-rule: nonzero; opacity: 1;"  transform=" translate(-519.5, -53.72)" d="M 515.997 23.497 Q 516 23.5 516 21.5 Q 516 19.5 517.5 21 Q 519 22.5 521 24 Q 523 25.5 524.5 28 Q 526 30.5 527 34 Q 528 37.5 529 41 Q 530 44.5 530 49 Q 530 53.5 530 57.5 Q 530 61.5 529.5 65.5 Q 529 69.5 528 72.5 Q 527 75.5 525 78 Q 523 80.5 520.5 82.5 Q 518 84.5 515.5 86 Q 513 87.5 511 87.5 L 508.997 87.5" stroke-linecap="round" />
</g>
<g transform="matrix(1 0 0 1 217 95.07)"  >
<path style="stroke: rgb(0,0,0); stroke-width: 3; stroke-dasharray: none; stroke-linecap: round; stroke-dashoffset: 0; stroke-linejoin: round; stroke-miterlimit: 10; fill: none; fill-rule: nonzero; opacity: 1;"  transform=" translate(-217, -95.06)" d="M 220.003 83.497 Q 220 83.5 218.5 82 Q 217 80.5 215 85.5 Q 213 90.5 212.5 94.5 Q 212 98.5 212 102 Q 212 105.5 213.5 107.5 Q 215 109.5 217.5 107.5 Q 220 105.5 221 103.5 Q 222 101.5 222 99.5 Q 222 97.5 220.5 94.5 L 218.997 91.497" stroke-linecap="round" />
</g>
<g transform="matrix(1 0 0 1 220.5 104.5)"  >
<path style="stroke: rgb(0,0,0); stroke-width: 3; stroke-dasharray: none; stroke-linecap: round; stroke-dashoffset: 0; stroke-linejoin: round; stroke-miterlimit: 10; fill: none; fill-rule: nonzero; opacity: 1;"  transform=" translate(-220.5, -104.5)" d="M 215.997 106.5 Q 216 106.5 220.5 104.5 L 225.003 102.5" stroke-linecap="round" />
</g>
<g transform="matrix(1 0 0 1 420 319.5)"  >
<path style="stroke: rgb(0,0,0); stroke-width: 3; stroke-dasharray: none; stroke-linecap: round; stroke-dashoffset: 0; stroke-linejoin: round; stroke-miterlimit: 10; fill: none; fill-rule: nonzero; opacity: 1;"  transform=" translate(-420, -319.5)" d="M 52.997 330.5 Q 53 330.5 59 330 Q 65 329.5 67 329.5 Q 69 329.5 72 329 Q 75 328.5 80 328.5 Q 85 328.5 90 328.5 Q 95 328.5 100.5 328 Q 106 327.5 111.5 327.5 Q 117 327.5 122.5 327 Q 128 326.5 133.5 326.5 Q 139 326.5 145 326.5 Q 151 326.5 157 326.5 Q 163 326.5 169 326.5 Q 175 326.5 182 326.5 Q 189 326.5 195.5 326.5 Q 202 326.5 206.5 326.5 Q 211 326.5 218.5 326.5 Q 226 326.5 232.5 327 Q 239 327.5 245 327.5 Q 251 327.5 257.5 327.5 Q 264 327.5 270.5 327.5 Q 277 327.5 283 327.5 Q 289 327.5 295.5 327.5 Q 302 327.5 308 327.5 Q 314 327.5 320.5 327 Q 327 326.5 334 326 Q 341 325.5 347 325.5 Q 353 325.5 359.5 325 Q 366 324.5 372.5 324.5 Q 379 324.5 385 324 Q 391 323.5 397.5 323.5 Q 404 323.5 410 323.5 Q 416 323.5 421.5 323.5 Q 427 323.5 432.5 323.5 Q 438 323.5 443.5 324 Q 449 324.5 454.5 324.5 Q 460 324.5 465.5 324.5 Q 471 324.5 477 324.5 Q 483 324.5 488.5 324.5 Q 494 324.5 499.5 324.5 Q 505 324.5 511 324 Q 517 323.5 523 323 Q 529 322.5 535.5 321.5 Q 542 320.5 548.5 319.5 Q 555 318.5 561.5 318 Q 568 317.5 574 317 Q 580 316.5 585.5 316 Q 591 315.5 597 315 Q 603 314.5 609 314 Q 615 313.5 620 313 Q 625 312.5 630 312.5 Q 635 312.5 640 312 Q 645 311.5 649.5 311.5 Q 654 311.5 658.5 311.5 Q 663 311.5 667.5 311.5 Q 672 311.5 676 311.5 Q 680 311.5 683.5 311 Q 687 310.5 690.5 310.5 Q 694 310.5 697.5 310.5 Q 701 310.5 704.5 310 Q 708 309.5 711.5 309.5 Q 715 309.5 718.5 309.5 Q 722 309.5 725.5 309.5 Q 729 309.5 731.5 309.5 Q 734 309.5 736.5 309.5 Q 739 309.5 741.5 309.5 Q 744 309.5 747 309 Q 750 308.5 752.5 308.5 Q 755 308.5 757.5 308.5 Q 760 308.5 762 308.5 Q 764 308.5 767.5 308.5 Q 771 308.5 774 308.5 Q 777 308.5 779 308.5 Q 781 308.5 784 308.5 L 787.003 308.5" stroke-linecap="round" />
</g>
<g transform="matrix(1 0 0 1 95 325.5)"  >
<path style="stroke: rgb(0,0,0); stroke-width: 3; stroke-dasharray: none; stroke-linecap: round; stroke-dashoffset: 0; stroke-linejoin: round; stroke-miterlimit: 10; fill: none; fill-rule: nonzero; opacity: 1;"  transform=" translate(-95, -325.5)" d="M 88.997 320.497 Q 89 320.5 90.5 322 Q 92 323.5 94 325 Q 96 326.5 98.5 328.5 L 101.003 330.503" stroke-linecap="round" />
</g>
<g transform="matrix(1 0 0 1 99 326.5)"  >
<path style="stroke: rgb(0,0,0); stroke-width: 3; stroke-dasharray: none; stroke-linecap: round; stroke-dashoffset: 0; stroke-linejoin: round; stroke-miterlimit: 10; fill: none; fill-rule: nonzero; opacity: 1;"  transform=" translate(-99, -326.5)" d="M 109.003 316.497 Q 109 316.5 106 318.5 Q 103 320.5 101 323 Q 99 325.5 96.5 328.5 Q 94 331.5 91.5 334 L 88.997 336.503" stroke-linecap="round" />
</g>
<g transform="matrix(1 0 0 1 133 324.5)"  >
<path style="stroke: rgb(0,0,0); stroke-width: 3; stroke-dasharray: none; stroke-linecap: round; stroke-dashoffset: 0; stroke-linejoin: round; stroke-miterlimit: 10; fill: none; fill-rule: nonzero; opacity: 1;"  transform=" translate(-133, -324.5)" d="M 124.997 316.497 Q 125 316.5 126.5 318 Q 128 319.5 130.5 323 Q 133 326.5 135 328 Q 137 329.5 139 331 L 141.003 332.503" stroke-linecap="round" />
</g>
<g transform="matrix(1 0 0 1 130.5 325.5)"  >
<path style="stroke: rgb(0,0,0); stroke-width: 3; stroke-dasharray: none; stroke-linecap: round; stroke-dashoffset: 0; stroke-linejoin: round; stroke-miterlimit: 10; fill: none; fill-rule: nonzero; opacity: 1;"  transform=" translate(-130.5, -325.5)" d="M 138.003 319.497 Q 138 319.5 135 319.5 Q 132 319.5 130.5 321 Q 129 322.5 127.5 325 Q 126 327.5 124.5 329.5 L 122.997 331.503" stroke-linecap="round" />
</g>
<g transform="matrix(1 0 0 1 172 321.5)"  >
<path style="stroke: rgb(0,0,0); stroke-width: 3; stroke-dasharray: none; stroke-linecap: round; stroke-dashoffset: 0; stroke-linejoin: round; stroke-miterlimit: 10; fill: none; fill-rule: nonzero; opacity: 1;"  transform=" translate(-172, -321.5)" d="M 163.997 315.497 Q 164 315.5 167 317 Q 170 318.5 171.5 320 Q 173 321.5 175 323 Q 177 324.5 178.5 326 L 180.003 327.503" stroke-linecap="round" />
</g>
<g transform="matrix(1 0 0 1 173.5 320)"  >
<path style="stroke: rgb(0,0,0); stroke-width: 3; stroke-dasharray: none; stroke-linecap: round; stroke-dashoffset: 0; stroke-linejoin: round; stroke-miterlimit: 10; fill: none; fill-rule: nonzero; opacity: 1;"  transform=" translate(-173.5, -320)" d="M 185.003 311.497 Q 185 311.5 181.5 313.5 Q 178 315.5 175.5 318 Q 173 320.5 170 322.5 Q 167 324.5 164.5 326.5 L 161.997 328.503" stroke-linecap="round" />
</g>
<g transform="matrix(1 0 0 1 213 323)"  >
<path style="stroke: rgb(0,0,0); stroke-width: 3; stroke-dasharray: none; stroke-linecap: round; stroke-dashoffset: 0; stroke-linejoin: round; stroke-miterlimit: 10; fill: none; fill-rule: nonzero; opacity: 1;"  transform=" translate(-213, -323)" d="M 207.997 319.497 Q 208 319.5 211.5 321 Q 215 322.5 216.5 324.5 L 218.003 326.503" stroke-linecap="round" />
</g>
<g transform="matrix(1 0 0 1 213.5 326.15)"  >
<path style="stroke: rgb(0,0,0); stroke-width: 3; stroke-dasharray: none; stroke-linecap: round; stroke-dashoffset: 0; stroke-linejoin: round; stroke-miterlimit: 10; fill: none; fill-rule: nonzero; opacity: 1;"  transform=" translate(-213.5, -326.15)" d="M 220.003 324.497 Q 220 324.5 218 323.5 Q 216 322.5 214 324 Q 212 325.5 209.5 327.5 L 206.997 329.503" stroke-linecap="round" />
</g>
<g transform="matrix(1 0 0 1 280 324.74)"  >
<path style="stroke: rgb(0,0,0); stroke-width: 3; stroke-dasharray: none; stroke-linecap: round; stroke-dashoffset: 0; stroke-linejoin: round; stroke-miterlimit: 10; fill: none; fill-rule: nonzero; opacity: 1;"  transform=" translate(-280, -324.74)" d="M 273.997 323.497 Q 274 323.5 275.5 322 Q 277 320.5 280 323 Q 283 325.5 284.5 327 L 286.003 328.503" stroke-linecap="round" />
</g>
<g transform="matrix(1 0 0 1 291 326.5)"  >
<path style="stroke: rgb(0,0,0); stroke-width: 3; stroke-dasharray: none; stroke-linecap: round; stroke-dashoffset: 0; stroke-linejoin: round; stroke-miterlimit: 10; fill: none; fill-rule: nonzero; opacity: 1;"  transform=" translate(-291, -326.5)" d="M 304.003 319.497 Q 304 319.5 302 319.5 Q 300 319.5 296 322 Q 292 324.5 288.5 326.5 Q 285 328.5 281.5 331 L 277.997 333.503" stroke-linecap="round" />
</g>
<g transform="matrix(1 0 0 1 195.5 324)"  >
<path style="stroke: rgb(0,0,0); stroke-width: 3; stroke-dasharray: none; stroke-linecap: round; stroke-dashoffset: 0; stroke-linejoin: round; stroke-miterlimit: 10; fill: none; fill-rule: nonzero; opacity: 1;"  transform=" translate(-195.5, -324)" d="M 193.997 315.497 Q 194 315.5 194.5 317.5 Q 195 319.5 195.5 323.5 Q 196 327.5 196.5 330 L 197.003 332.503" stroke-linecap="round" />
</g>
<g transform="matrix(1 0 0 1 194.5 329)"  >
<path style="stroke: rgb(0,0,0); stroke-width: 3; stroke-dasharray: none; stroke-linecap: round; stroke-dashoffset: 0; stroke-linejoin: round; stroke-miterlimit: 10; fill: none; fill-rule: nonzero; opacity: 1;"  transform=" translate(-194.5, -329)" d="M 201.003 324.497 Q 201 324.5 198.5 325 Q 196 325.5 194.5 327.5 Q 193 329.5 190.5 331.5 L 187.997 333.503" stroke-linecap="round" />
</g>
<g transform="matrix(1 0 0 1 152.5 324.5)"  >
<path style="stroke: rgb(0,0,0); stroke-width: 3; stroke-dasharray: none; stroke-linecap: round; stroke-dashoffset: 0; stroke-linejoin: round; stroke-miterlimit: 10; fill: none; fill-rule: nonzero; opacity: 1;"  transform=" translate(-152.5, -324.5)" d="M 146.997 317.497 Q 147 317.5 149 321 Q 151 324.5 153 326.5 Q 155 328.5 156.5 330 L 158.003 331.503" stroke-linecap="round" />
</g>
<g transform="matrix(1 0 0 1 158 325.5)"  >
<path style="stroke: rgb(0,0,0); stroke-width: 3; stroke-dasharray: none; stroke-linecap: round; stroke-dashoffset: 0; stroke-linejoin: round; stroke-miterlimit: 10; fill: none; fill-rule: nonzero; opacity: 1;"  transform=" translate(-158, -325.5)" d="M 163.003 319.497 Q 163 319.5 160.5 319.5 Q 158 319.5 156 323 Q 154 326.5 153.5 329 L 152.997 331.503" stroke-linecap="round" />
</g>
<g transform="matrix(1 0 0 1 542.5 320.5)"  >
<path style="stroke: rgb(0,0,0); stroke-width: 3; stroke-dasharray: none; stroke-linecap: round; stroke-dashoffset: 0; stroke-linejoin: round; stroke-miterlimit: 10; fill: none; fill-rule: nonzero; opacity: 1;"  transform=" translate(-542.5, -320.5)" d="M 542 311.497 Q 542 311.5 542.5 318.5 Q 543 325.5 543 327.5 L 543 329.503" stroke-linecap="round" />
</g>
<g transform="matrix(1 0 0 1 568 317.5)"  >
<path style="stroke: rgb(0,0,0); stroke-width: 3; stroke-dasharray: none; stroke-linecap: round; stroke-dashoffset: 0; stroke-linejoin: round; stroke-miterlimit: 10; fill: none; fill-rule: nonzero; opacity: 1;"  transform=" translate(-568, -317.5)" d="M 566.997 304.5 Q 567 304.5 568 317.5 L 569.003 330.5" stroke-linecap="round" />
</g>
<g transform="matrix(1 0 0 1 600.5 314.5)"  >
<path style="stroke: rgb(0,0,0); stroke-width: 3; stroke-dasharray: none; stroke-linecap: round; stroke-dashoffset: 0; stroke-linejoin: round; stroke-miterlimit: 10; fill: none; fill-rule: nonzero; opacity: 1;"  transform=" translate(-600.5, -314.5)" d="M 600 299.497 Q 600 299.5 600.5 305.5 Q 601 311.5 601 314.5 Q 601 317.5 601 319.5 Q 601 321.5 600.5 325.5 L 599.997 329.503" stroke-linecap="round" />
</g>
<g transform="matrix(1 0 0 1 637 310.5)"  >
<path style="stroke: rgb(0,0,0); stroke-width: 3; stroke-dasharray: none; stroke-linecap: round; stroke-dashoffset: 0; stroke-linejoin: round; stroke-miterlimit: 10; fill: none; fill-rule: nonzero; opacity: 1;"  transform=" translate(-637, -310.5)" d="M 637 294.497 Q 637 294.5 637 304 Q 637 313.5 637 320 L 637 326.503" stroke-linecap="round" />
</g>
<g transform="matrix(1 0 0 1 667.5 314.5)"  >
<path style="stroke: rgb(0,0,0); stroke-width: 3; stroke-dasharray: none; stroke-linecap: round; stroke-dashoffset: 0; stroke-linejoin: round; stroke-miterlimit: 10; fill: none; fill-rule: nonzero; opacity: 1;"  transform=" translate(-667.5, -314.5)" d="M 666.997 300.5 Q 667 300.5 667.5 314.5 L 668.003 328.5" stroke-linecap="round" />
</g>
<g transform="matrix(1 0 0 1 611 320)"  >
<path style="stroke: rgb(0,0,0); stroke-width: 3; stroke-dasharray: none; stroke-linecap: round; stroke-dashoffset: 0; stroke-linejoin: round; stroke-miterlimit: 10; fill: none; fill-rule: nonzero; opacity: 1;"  transform=" translate(-611, -320)" d="M 612 300.497 Q 612 300.5 611 314 Q 610 327.5 610 331 Q 610 334.5 610.5 337 L 611.003 339.503" stroke-linecap="round" />
</g>
<g transform="matrix(1 0 0 1 621.5 320)"  >
<path style="stroke: rgb(0,0,0); stroke-width: 3; stroke-dasharray: none; stroke-linecap: round; stroke-dashoffset: 0; stroke-linejoin: round; stroke-miterlimit: 10; fill: none; fill-rule: nonzero; opacity: 1;"  transform=" translate(-621.5, -320)" d="M 622 303.497 Q 622 303.5 622.5 308 Q 623 312.5 623 316.5 Q 623 320.5 622 324.5 Q 621 328.5 620.5 332.5 L 619.997 336.503" stroke-linecap="round" />
</g>
<g transform="matrix(1 0 0 1 586.5 313)"  >
<path style="stroke: rgb(0,0,0); stroke-width: 3; stroke-dasharray: none; stroke-linecap: round; stroke-dashoffset: 0; stroke-linejoin: round; stroke-miterlimit: 10; fill: none; fill-rule: nonzero; opacity: 1;"  transform=" translate(-586.5, -313)" d="M 589.003 296.497 Q 589 296.5 588 299.5 Q 587 302.5 586 310.5 Q 585 318.5 584.5 320.5 Q 584 322.5 584 326 L 584 329.503" stroke-linecap="round" />
</g>
<g transform="matrix(1 0 0 1 749 304.5)"  >
<path style="stroke: rgb(0,0,0); stroke-width: 3; stroke-dasharray: none; stroke-linecap: round; stroke-dashoffset: 0; stroke-linejoin: round; stroke-miterlimit: 10; fill: none; fill-rule: nonzero; opacity: 1;"  transform=" translate(-749, -304.5)" d="M 748.997 304.5 L 749.003 304.5" stroke-linecap="round" />
</g>
<g transform="matrix(1 0 0 1 357.5 268.5)"  >
<path style="stroke: rgb(35,120,130); stroke-width: 3; stroke-dasharray: none; stroke-linecap: round; stroke-dashoffset: 0; stroke-linejoin: round; stroke-miterlimit: 10; fill: none; fill-rule: nonzero; opacity: 1;"  transform=" translate(-193.5, -274.5)" d="M 23.997 331.503 Q 24 331.5 27 331.5 Q 30 331.5 33 330.5 Q 36 329.5 39 327.5 Q 42 325.5 44 324.5 Q 46 323.5 48 322 Q 50 320.5 51.5 319 Q 53 317.5 55.5 315 Q 58 312.5 59.5 311 Q 61 309.5 62.5 307.5 Q 64 305.5 65.5 304 Q 67 302.5 69.5 299.5 Q 72 296.5 73.5 295 Q 75 293.5 76.5 291.5 Q 78 289.5 79.5 287 Q 81 284.5 82.5 282.5 Q 84 280.5 85.5 279 Q 87 277.5 88.5 275.5 Q 90 273.5 91.5 272 Q 93 270.5 94.5 268.5 Q 96 266.5 98 264 Q 100 261.5 101.5 259.5 Q 103 257.5 105 255.5 Q 107 253.5 108.5 251.5 Q 110 249.5 112.5 247.5 Q 115 245.5 117 243.5 Q 119 241.5 121 240 Q 123 238.5 126 236 Q 129 233.5 131 232 Q 133 230.5 135.5 229 Q 138 227.5 140 226 Q 142 224.5 144 223.5 Q 146 222.5 148 221.5 Q 150 220.5 152.5 220 Q 155 219.5 157.5 219.5 Q 160 219.5 162 219 Q 164 218.5 166.5 218 Q 169 217.5 171.5 217.5 Q 174 217.5 176 217.5 Q 178 217.5 180.5 217.5 Q 183 217.5 185 218.5 Q 187 219.5 189 220 Q 191 220.5 193 221.5 Q 195 222.5 197 223.5 Q 199 224.5 201 225 Q 203 225.5 205 226.5 Q 207 227.5 209 228.5 Q 211 229.5 213 230.5 Q 215 231.5 217 232.5 Q 219 233.5 221 234.5 Q 223 235.5 225 236.5 Q 227 237.5 228.5 239 Q 230 240.5 232 241.5 Q 234 242.5 237.5 244.5 Q 241 246.5 243 247.5 Q 245 248.5 247 249.5 Q 249 250.5 251 252 Q 253 253.5 256.5 255.5 Q 260 257.5 261.5 259 Q 263 260.5 264.5 262 Q 266 263.5 267.5 265 Q 269 266.5 271 268 Q 273 269.5 274.5 271.5 Q 276 273.5 278 275 Q 280 276.5 282 278 Q 284 279.5 286.5 281 Q 289 282.5 291 284 Q 293 285.5 295 287.5 Q 297 289.5 299 291 Q 301 292.5 303 293.5 Q 305 294.5 307 296 Q 309 297.5 311 299.5 Q 313 301.5 315 303 Q 317 304.5 318.5 306 Q 320 307.5 322 309.5 Q 324 311.5 326 313 Q 328 314.5 331.5 316.5 Q 335 318.5 337.5 319 Q 340 319.5 342 319.5 Q 344 319.5 346.5 319.5 Q 349 319.5 351 320 Q 353 320.5 355.5 320.5 Q 358 320.5 360.5 320 L 363.003 319.497" stroke-linecap="round" />
</g>
<g transform="matrix(1 0 0 1 492 274.41)"  >
<path style="stroke: rgb(35,120,130); stroke-width: 3; stroke-dasharray: none; stroke-linecap: round; stroke-dashoffset: 0; stroke-linejoin: round; stroke-miterlimit: 10; fill: none; fill-rule: nonzero; opacity: 1;"  transform=" translate(-632, -259.41)" d="M 460.997 317.503 Q 461 317.5 463.5 318 Q 466 318.5 470 317.5 Q 474 316.5 476 316 Q 478 315.5 480.5 314.5 Q 483 313.5 485.5 312 Q 488 310.5 491 309.5 Q 494 308.5 496.5 307 Q 499 305.5 501 305 Q 503 304.5 505.5 303.5 Q 508 302.5 510 301.5 Q 512 300.5 514 299 Q 516 297.5 518 296.5 Q 520 295.5 522 294 Q 524 292.5 526 291 Q 528 289.5 529.5 287.5 Q 531 285.5 533 284 Q 535 282.5 537 280 Q 539 277.5 541 275.5 Q 543 273.5 544.5 271.5 Q 546 269.5 547.5 267.5 Q 549 265.5 550.5 263 Q 552 260.5 553.5 258 Q 555 255.5 557 252.5 Q 559 249.5 561 246.5 Q 563 243.5 564.5 240.5 Q 566 237.5 568 234.5 Q 570 231.5 571.5 229 Q 573 226.5 575 224.5 Q 577 222.5 579 220.5 Q 581 218.5 583.5 216.5 Q 586 214.5 589 212.5 Q 592 210.5 594.5 209.5 Q 597 208.5 600 207 Q 603 205.5 606 204.5 Q 609 203.5 612 202.5 Q 615 201.5 618 201 Q 621 200.5 624 200.5 Q 627 200.5 630 200.5 Q 633 200.5 635.5 200.5 Q 638 200.5 641 200.5 Q 644 200.5 647.5 200.5 Q 651 200.5 653.5 201.5 Q 656 202.5 658 203.5 Q 660 204.5 662 205.5 Q 664 206.5 666.5 208 Q 669 209.5 671 211 Q 673 212.5 675 213.5 Q 677 214.5 679 216 Q 681 217.5 682.5 219.5 Q 684 221.5 685.5 223 Q 687 224.5 688.5 226 Q 690 227.5 692 229.5 Q 694 231.5 695.5 233.5 Q 697 235.5 698.5 237.5 Q 700 239.5 701.5 241.5 Q 703 243.5 704.5 245 Q 706 246.5 707.5 248.5 Q 709 250.5 710.5 252 Q 712 253.5 713 255.5 Q 714 257.5 715.5 259 Q 717 260.5 718.5 262.5 Q 720 264.5 723.5 267 Q 727 269.5 730.5 271.5 Q 734 273.5 737.5 276 Q 741 278.5 744.5 280.5 Q 748 282.5 750 283 Q 752 283.5 754.5 284 Q 757 284.5 759 285 Q 761 285.5 763 286 Q 765 286.5 767 287 Q 769 287.5 771.5 288 Q 774 288.5 776 288.5 Q 778 288.5 780 288.5 Q 782 288.5 785.5 288.5 Q 789 288.5 792 288 Q 795 287.5 797 287.5 Q 799 287.5 801 287 L 803.003 286.497" stroke-linecap="round" />
</g>
</svg>
