<?xml version="1.0" encoding="UTF-8" standalone="no" ?>
<!DOCTYPE svg PUBLIC "-//W3C//DTD SVG 1.1//EN" "http://www.w3.org/Graphics/SVG/1.1/DTD/svg11.dtd">
<svg xmlns="http://www.w3.org/2000/svg" xmlns:xlink="http://www.w3.org/1999/xlink" version="1.1" width="864" height="456" viewBox="0 0 864 456" xml:space="preserve">
<desc>Created with Fabric.js 4.3.1</desc>
<defs>
</defs>
<g transform="matrix(1 0 0 1 63.13 96.5)"  >
<path style="stroke: rgb(0,0,0); stroke-width: 3; stroke-dasharray: none; stroke-linecap: round; stroke-dashoffset: 0; stroke-linejoin: round; stroke-miterlimit: 10; fill: none; fill-rule: nonzero; opacity: 1;"  transform=" translate(-63.13, -96.5)" d="M 61.997 64.497 Q 62 64.5 61 67 Q 60 69.5 61 78 Q 62 86.5 62.5 90 Q 63 93.5 64 101.5 Q 65 109.5 65.5 115 Q 66 120.5 66 124.5 L 66 128.503" stroke-linecap="round" />
</g>
<g transform="matrix(1 0 0 1 73.25 69.09)"  >
<path style="stroke: rgb(0,0,0); stroke-width: 3; stroke-dasharray: none; stroke-linecap: round; stroke-dashoffset: 0; stroke-linejoin: round; stroke-miterlimit: 10; fill: none; fill-rule: nonzero; opacity: 1;"  transform=" translate(-73.26, -69.09)" d="M 56.997 60.503 Q 57 60.5 55.5 58.5 Q 54 56.5 57 54 Q 60 51.5 64.5 49 Q 69 46.5 74 46 Q 79 45.5 82 46.5 Q 85 47.5 87.5 50.5 Q 90 53.5 91 57.5 Q 92 61.5 92 66.5 Q 92 71.5 89.5 76 Q 87 80.5 83.5 84 Q 80 87.5 77 89.5 Q 74 91.5 71 92 L 67.997 92.503" stroke-linecap="round" />
</g>
<g transform="matrix(1 0 0 1 111 92.67)"  >
<path style="stroke: rgb(0,0,0); stroke-width: 3; stroke-dasharray: none; stroke-linecap: round; stroke-dashoffset: 0; stroke-linejoin: round; stroke-miterlimit: 10; fill: none; fill-rule: nonzero; opacity: 1;"  transform=" translate(-111, -92.67)" d="M 122.003 35.497 Q 122 35.5 123 33.5 Q 124 31.5 121.5 32.5 Q 119 33.5 116 38 Q 113 42.5 110 48 Q 107 53.5 103.5 61 Q 100 68.5 98 78 Q 96 87.5 96 96.5 Q 96 105.5 97.5 114 Q 99 122.5 101 129 Q 103 135.5 105.5 139.5 Q 108 143.5 111 146.5 Q 114 149.5 117.5 151 Q 121 152.5 123.5 153 L 126.003 153.503" stroke-linecap="round" />
</g>
<g transform="matrix(1 0 0 1 130 111)"  >
<path style="stroke: rgb(0,0,0); stroke-width: 3; stroke-dasharray: none; stroke-linecap: round; stroke-dashoffset: 0; stroke-linejoin: round; stroke-miterlimit: 10; fill: none; fill-rule: nonzero; opacity: 1;"  transform=" translate(-130, -111)" d="M 125.997 92.5 Q 126 92.5 130 111 L 134.003 129.5" stroke-linecap="round" />
</g>
<g transform="matrix(1 0 0 1 127.42 93)"  >
<path style="stroke: rgb(0,0,0); stroke-width: 3; stroke-dasharray: none; stroke-linecap: round; stroke-dashoffset: 0; stroke-linejoin: round; stroke-miterlimit: 10; fill: none; fill-rule: nonzero; opacity: 1;"  transform=" translate(-127.41, -93)" d="M 109.997 93.503 Q 110 93.5 110 91.5 Q 110 89.5 111.5 87.5 Q 113 85.5 116 83 Q 119 80.5 122.5 79 Q 126 77.5 129 77.5 Q 132 77.5 135 78 Q 138 78.5 140.5 81 Q 143 83.5 144 86.5 Q 145 89.5 144.5 92.5 Q 144 95.5 142 98 Q 140 100.5 137 103 Q 134 105.5 131.5 107 L 128.997 108.503" stroke-linecap="round" />
</g>
<g transform="matrix(1 0 0 1 163.59 92.59)"  >
<path style="stroke: rgb(0,0,0); stroke-width: 3; stroke-dasharray: none; stroke-linecap: round; stroke-dashoffset: 0; stroke-linejoin: round; stroke-miterlimit: 10; fill: none; fill-rule: nonzero; opacity: 1;"  transform=" translate(-163.59, -92.59)" d="M 172.003 83.503 Q 172 83.5 167.5 81 Q 163 78.5 159 77.5 Q 155 76.5 152.5 79 Q 150 81.5 149 85 Q 148 88.5 148.5 92.5 Q 149 96.5 151 100 Q 153 103.5 156 105.5 Q 159 107.5 162 108 Q 165 108.5 167 107 Q 169 105.5 170.5 103 Q 172 100.5 173 98 Q 174 95.5 174 93 Q 174 90.5 176.5 94 L 179.003 97.503" stroke-linecap="round" />
</g>
<g transform="matrix(1 0 0 1 194.59 92.83)"  >
<path style="stroke: rgb(0,0,0); stroke-width: 3; stroke-dasharray: none; stroke-linecap: round; stroke-dashoffset: 0; stroke-linejoin: round; stroke-miterlimit: 10; fill: none; fill-rule: nonzero; opacity: 1;"  transform=" translate(-194.59, -92.83)" d="M 187.997 83.497 Q 188 83.5 187.5 87 Q 187 90.5 188 93 Q 189 95.5 190 98.5 Q 191 101.5 191.5 103.5 Q 192 105.5 190.5 101 Q 189 96.5 189 92.5 Q 189 88.5 190 85.5 Q 191 82.5 193.5 81.5 Q 196 80.5 199 83 L 202.003 85.503" stroke-linecap="round" />
</g>
<g transform="matrix(1 0 0 1 219 91.07)"  >
<path style="stroke: rgb(0,0,0); stroke-width: 3; stroke-dasharray: none; stroke-linecap: round; stroke-dashoffset: 0; stroke-linejoin: round; stroke-miterlimit: 10; fill: none; fill-rule: nonzero; opacity: 1;"  transform=" translate(-219, -91.06)" d="M 215.003 82.497 Q 215 82.5 214.5 80 Q 214 77.5 212.5 79.5 Q 211 81.5 210.5 85 Q 210 88.5 210 92 Q 210 95.5 210 98.5 Q 210 101.5 212 103 Q 214 104.5 216 102.5 Q 218 100.5 218.5 98 Q 219 95.5 221 94 Q 223 92.5 224 90 Q 225 87.5 225.5 85.5 Q 226 83.5 226 87.5 Q 226 91.5 226.5 95 Q 227 98.5 227.5 101 L 228.003 103.503" stroke-linecap="round" />
</g>
<g transform="matrix(1 0 0 1 259 95.82)"  >
<path style="stroke: rgb(0,0,0); stroke-width: 3; stroke-dasharray: none; stroke-linecap: round; stroke-dashoffset: 0; stroke-linejoin: round; stroke-miterlimit: 10; fill: none; fill-rule: nonzero; opacity: 1;"  transform=" translate(-259, -95.81)" d="M 237.997 82.497 Q 238 82.5 238.5 87 Q 239 91.5 239.5 95 Q 240 98.5 240.5 101.5 Q 241 104.5 240 101 Q 239 97.5 239 94.5 Q 239 91.5 240 88 Q 241 84.5 242 82 Q 243 79.5 245 82 Q 247 84.5 248 88 Q 249 91.5 249.5 94 Q 250 96.5 250.5 98.5 Q 251 100.5 251.5 97 Q 252 93.5 253.5 90.5 Q 255 87.5 256.5 91 Q 258 94.5 258.5 97 Q 259 99.5 261 100.5 Q 263 101.5 266 102 Q 269 102.5 271.5 102 Q 274 101.5 275.5 99.5 Q 277 97.5 278.5 95 Q 280 92.5 280 90 Q 280 87.5 279.5 85.5 Q 279 83.5 275.5 84 Q 272 84.5 270 87 Q 268 89.5 266.5 92.5 Q 265 95.5 265 99.5 Q 265 103.5 265.5 106 Q 266 108.5 267.5 110 Q 269 111.5 271 111.5 L 273.003 111.5" stroke-linecap="round" />
</g>
<g transform="matrix(1 0 0 1 293 79.86)"  >
<path style="stroke: rgb(0,0,0); stroke-width: 3; stroke-dasharray: none; stroke-linecap: round; stroke-dashoffset: 0; stroke-linejoin: round; stroke-miterlimit: 10; fill: none; fill-rule: nonzero; opacity: 1;"  transform=" translate(-293, -79.87)" d="M 292 54.497 Q 292 54.5 292.5 52 Q 293 49.5 293 53 Q 293 56.5 293 64.5 Q 293 72.5 293 80.5 Q 293 88.5 293 95 Q 293 101.5 293.5 105.5 L 294.003 109.503" stroke-linecap="round" />
</g>
<g transform="matrix(1 0 0 1 298.49 96)"  >
<path style="stroke: rgb(0,0,0); stroke-width: 3; stroke-dasharray: none; stroke-linecap: round; stroke-dashoffset: 0; stroke-linejoin: round; stroke-miterlimit: 10; fill: none; fill-rule: nonzero; opacity: 1;"  transform=" translate(-298.49, -96)" d="M 288.997 81.497 Q 289 81.5 287.5 83.5 Q 286 85.5 290 86.5 Q 294 87.5 297.5 87.5 Q 301 87.5 304 87 Q 307 86.5 309 86 Q 311 85.5 308 84.5 Q 305 83.5 303.5 85.5 Q 302 87.5 301 91.5 Q 300 95.5 300 100 Q 300 104.5 301 107.5 L 302.003 110.503" stroke-linecap="round" />
</g>
<g transform="matrix(1 0 0 1 329.4 105.13)"  >
<path style="stroke: rgb(0,0,0); stroke-width: 3; stroke-dasharray: none; stroke-linecap: round; stroke-dashoffset: 0; stroke-linejoin: round; stroke-miterlimit: 10; fill: none; fill-rule: nonzero; opacity: 1;"  transform=" translate(-329.4, -105.13)" d="M 315.997 91.497 Q 316 91.5 318.5 91.5 Q 321 91.5 321.5 93.5 Q 322 95.5 322.5 98.5 Q 323 101.5 323.5 104 Q 324 106.5 323.5 108.5 Q 323 110.5 321 110 Q 319 109.5 319 107 Q 319 104.5 319 102 Q 319 99.5 320 97 Q 321 94.5 324 92.5 Q 327 90.5 329 90 Q 331 89.5 333.5 88.5 Q 336 87.5 334 88.5 Q 332 89.5 330 90.5 Q 328 91.5 330 94 Q 332 96.5 334 98.5 Q 336 100.5 338 102.5 Q 340 104.5 341.5 108 Q 343 111.5 342.5 114 Q 342 116.5 339.5 118 Q 337 119.5 333.5 121 Q 330 122.5 327 122.5 L 323.997 122.5" stroke-linecap="round" />
</g>
<g transform="matrix(1 0 0 1 399.88 79.85)"  >
<path style="stroke: rgb(0,0,0); stroke-width: 3; stroke-dasharray: none; stroke-linecap: round; stroke-dashoffset: 0; stroke-linejoin: round; stroke-miterlimit: 10; fill: none; fill-rule: nonzero; opacity: 1;"  transform=" translate(-399.87, -79.84)" d="M 398.997 39.497 Q 399 39.5 399.5 37.5 Q 400 35.5 401 39.5 Q 402 43.5 401 49.5 Q 400 55.5 399.5 63 Q 399 70.5 399 77.5 Q 399 84.5 399.5 91.5 Q 400 98.5 400 104.5 Q 400 110.5 399.5 114 Q 399 117.5 398.5 120.5 L 397.997 123.503" stroke-linecap="round" />
</g>
<g transform="matrix(1 0 0 1 437.5 75.95)"  >
<path style="stroke: rgb(0,0,0); stroke-width: 3; stroke-dasharray: none; stroke-linecap: round; stroke-dashoffset: 0; stroke-linejoin: round; stroke-miterlimit: 10; fill: none; fill-rule: nonzero; opacity: 1;"  transform=" translate(-437.5, -75.95)" d="M 449 62.497 Q 449 62.5 446.5 57 Q 444 51.5 444 54 Q 444 56.5 444 61 Q 444 65.5 443.5 71 Q 443 76.5 443 80.5 Q 443 84.5 443.5 87 Q 444 89.5 444 86 Q 444 82.5 442.5 80.5 Q 441 78.5 438.5 78.5 Q 436 78.5 433.5 79.5 Q 431 80.5 429.5 82.5 Q 428 84.5 427 87 Q 426 89.5 426 92.5 Q 426 95.5 428.5 97 Q 431 98.5 433.5 99 Q 436 99.5 438 99.5 Q 440 99.5 442 98 L 444.003 96.497" stroke-linecap="round" />
</g>
<g transform="matrix(1 0 0 1 476.5 89.09)"  >
<path style="stroke: rgb(0,0,0); stroke-width: 3; stroke-dasharray: none; stroke-linecap: round; stroke-dashoffset: 0; stroke-linejoin: round; stroke-miterlimit: 10; fill: none; fill-rule: nonzero; opacity: 1;"  transform=" translate(-476.5, -89.09)" d="M 478.003 84.503 Q 478 84.5 478.5 82.5 Q 479 80.5 476.5 79 Q 474 77.5 472 79 Q 470 80.5 469 83 Q 468 85.5 467 88 Q 466 90.5 466 93 Q 466 95.5 466 97.5 Q 466 99.5 468 100 Q 470 100.5 471.5 99 Q 473 97.5 474.5 95 Q 476 92.5 477 90 Q 478 87.5 479 85.5 Q 480 83.5 481.5 87 Q 483 90.5 484 93 Q 485 95.5 486 97.5 L 487.003 99.503" stroke-linecap="round" />
</g>
<g transform="matrix(1 0 0 1 495.5 79)"  >
<path style="stroke: rgb(0,0,0); stroke-width: 3; stroke-dasharray: none; stroke-linecap: round; stroke-dashoffset: 0; stroke-linejoin: round; stroke-miterlimit: 10; fill: none; fill-rule: nonzero; opacity: 1;"  transform=" translate(-495.5, -79)" d="M 491.997 53.497 Q 492 53.5 492.5 64 Q 493 74.5 494 79 Q 495 83.5 496.5 88.5 Q 498 93.5 498.5 97 Q 499 100.5 499 102.5 L 499 104.503" stroke-linecap="round" />
</g>
<g transform="matrix(1 0 0 1 495 83)"  >
<path style="stroke: rgb(0,0,0); stroke-width: 3; stroke-dasharray: none; stroke-linecap: round; stroke-dashoffset: 0; stroke-linejoin: round; stroke-miterlimit: 10; fill: none; fill-rule: nonzero; opacity: 1;"  transform=" translate(-495, -83)" d="M 486.997 84.503 Q 487 84.5 491.5 84 Q 496 83.5 499.5 82.5 L 503.003 81.497" stroke-linecap="round" />
</g>
<g transform="matrix(1 0 0 1 529.56 92.89)"  >
<path style="stroke: rgb(0,0,0); stroke-width: 3; stroke-dasharray: none; stroke-linecap: round; stroke-dashoffset: 0; stroke-linejoin: round; stroke-miterlimit: 10; fill: none; fill-rule: nonzero; opacity: 1;"  transform=" translate(-529.56, -92.89)" d="M 532.003 86.503 Q 532 86.5 531.5 84.5 Q 531 82.5 529 82 Q 527 81.5 525 83 Q 523 84.5 521.5 86.5 Q 520 88.5 519 90.5 Q 518 92.5 517.5 95 Q 517 97.5 517.5 99.5 Q 518 101.5 520 103 Q 522 104.5 524.5 102.5 Q 527 100.5 528 98 Q 529 95.5 530.5 93.5 Q 532 91.5 533 94.5 Q 534 97.5 535.5 99 Q 537 100.5 539.5 101.5 L 542.003 102.503" stroke-linecap="round" />
</g>
<g transform="matrix(1 0 0 1 556.41 79.24)"  >
<path style="stroke: rgb(0,0,0); stroke-width: 3; stroke-dasharray: none; stroke-linecap: round; stroke-dashoffset: 0; stroke-linejoin: round; stroke-miterlimit: 10; fill: none; fill-rule: nonzero; opacity: 1;"  transform=" translate(-556.41, -79.24)" d="M 543.997 48.497 Q 544 48.5 545.5 47 Q 547 45.5 550 48 Q 553 50.5 555.5 54 Q 558 57.5 560.5 61 Q 563 64.5 565 69 Q 567 73.5 568 78.5 Q 569 83.5 568.5 88.5 Q 568 93.5 567 98.5 Q 566 103.5 564 106.5 Q 562 109.5 559.5 111 L 556.997 112.503" stroke-linecap="round" />
</g>
<g transform="matrix(1 0 0 1 242.44 379.11)"  >
<path style="stroke: rgb(0,0,0); stroke-width: 3; stroke-dasharray: none; stroke-linecap: round; stroke-dashoffset: 0; stroke-linejoin: round; stroke-miterlimit: 10; fill: none; fill-rule: nonzero; opacity: 1;"  transform=" translate(-242.44, -379.11)" d="M 254.003 374.503 Q 254 374.5 253 370 Q 252 365.5 248 363.5 Q 244 361.5 242 362 Q 240 362.5 237.5 363.5 Q 235 364.5 233.5 367 Q 232 369.5 231 373 Q 230 376.5 230 381 Q 230 385.5 230.5 388.5 Q 231 391.5 233 393 Q 235 394.5 237.5 395.5 Q 240 396.5 242 396.5 Q 244 396.5 246.5 394.5 Q 249 392.5 250.5 389.5 Q 252 386.5 253 383.5 Q 254 380.5 254.5 377.5 Q 255 374.5 254.5 372.5 Q 254 370.5 252 368.5 L 249.997 366.497" stroke-linecap="round" />
</g>
<g transform="matrix(1 0 0 1 238.5 379.5)"  >
<path style="stroke: rgb(0,0,0); stroke-width: 3; stroke-dasharray: none; stroke-linecap: round; stroke-dashoffset: 0; stroke-linejoin: round; stroke-miterlimit: 10; fill: none; fill-rule: nonzero; opacity: 1;"  transform=" translate(-238.5, -379.5)" d="M 227.997 383.503 Q 228 383.5 231 382 Q 234 380.5 237 380 Q 240 379.5 242 378.5 Q 244 377.5 246.5 376.5 L 249.003 375.497" stroke-linecap="round" />
</g>
<g transform="matrix(1 0 0 1 306 339)"  >
<path style="stroke: rgb(0,0,0); stroke-width: 3; stroke-dasharray: none; stroke-linecap: round; stroke-dashoffset: 0; stroke-linejoin: round; stroke-miterlimit: 10; fill: none; fill-rule: nonzero; opacity: 1;"  transform=" translate(-306, -339)" d="M 113.997 349.5 Q 114 349.5 127.5 348 Q 141 346.5 143.5 346.5 Q 146 346.5 149.5 346.5 Q 153 346.5 158 346 Q 163 345.5 168 345 Q 173 344.5 178 344.5 Q 183 344.5 186.5 344 Q 190 343.5 196.5 343.5 Q 203 343.5 208.5 343.5 Q 214 343.5 219.5 343.5 Q 225 343.5 230.5 343.5 Q 236 343.5 241 343.5 Q 246 343.5 251.5 343.5 Q 257 343.5 262.5 343.5 Q 268 343.5 273.5 343.5 Q 279 343.5 285 343 Q 291 342.5 297 342.5 Q 303 342.5 308.5 342.5 Q 314 342.5 319.5 342.5 Q 325 342.5 330.5 342.5 Q 336 342.5 342 342 Q 348 341.5 353.5 341.5 Q 359 341.5 364 341 Q 369 340.5 374 340.5 Q 379 340.5 384.5 340 Q 390 339.5 395 339 Q 400 338.5 404.5 338 Q 409 337.5 414 337 Q 419 336.5 423.5 336 Q 428 335.5 433 334.5 Q 438 333.5 443 333 Q 448 332.5 452 332 Q 456 331.5 460.5 331.5 Q 465 331.5 468.5 331.5 Q 472 331.5 475 331.5 Q 478 331.5 481 331 Q 484 330.5 487 330.5 Q 490 330.5 492 330 Q 494 329.5 496 329 L 498.003 328.497" stroke-linecap="round" />
</g>
<g transform="matrix(1 0 0 1 263.56 282)"  >
<path style="stroke: rgb(0,0,0); stroke-width: 3; stroke-dasharray: none; stroke-linecap: round; stroke-dashoffset: 0; stroke-linejoin: round; stroke-miterlimit: 10; fill: none; fill-rule: nonzero; opacity: 1;"  transform=" translate(-263.56, -282)" d="M 257.997 221.497 Q 258 221.5 257.5 225.5 Q 257 229.5 257.5 233 Q 258 236.5 258.5 242.5 Q 259 248.5 260 252 Q 261 255.5 261.5 259.5 Q 262 263.5 263 267 Q 264 270.5 265 274 Q 266 277.5 266.5 280.5 Q 267 283.5 267.5 287 Q 268 290.5 268 294 Q 268 297.5 268 300.5 Q 268 303.5 268 306.5 Q 268 309.5 268 312 Q 268 314.5 268 316.5 Q 268 318.5 268 320.5 Q 268 322.5 268.5 324.5 Q 269 326.5 269 329.5 Q 269 332.5 269.5 335 Q 270 337.5 270 340 L 270 342.503" stroke-linecap="round" />
</g>
<g transform="matrix(1 0 0 1 362.5 287.5)"  >
<path style="stroke: rgb(35,120,130); stroke-width: 3; stroke-dasharray: none; stroke-linecap: round; stroke-dashoffset: 0; stroke-linejoin: round; stroke-miterlimit: 10; fill: none; fill-rule: nonzero; opacity: 1;"  transform=" translate(-362.5, -287.5)" d="M 108.997 345.503 Q 109 345.5 112.5 344.5 Q 116 343.5 120 342 Q 124 340.5 126 339.5 Q 128 338.5 132.5 336.5 Q 137 334.5 139.5 333 Q 142 331.5 144.5 330.5 Q 147 329.5 149 328.5 Q 151 327.5 153 326 Q 155 324.5 157.5 323 Q 160 321.5 162 320.5 Q 164 319.5 166 318 Q 168 316.5 170 315 Q 172 313.5 174 312 Q 176 310.5 178 308.5 Q 180 306.5 182 305 Q 184 303.5 186 302 Q 188 300.5 190.5 298.5 Q 193 296.5 195.5 294.5 Q 198 292.5 200.5 290 Q 203 287.5 205.5 286 Q 208 284.5 210.5 282 Q 213 279.5 215 278 Q 217 276.5 219 274.5 Q 221 272.5 223.5 270.5 Q 226 268.5 228.5 266.5 Q 231 264.5 233 263 Q 235 261.5 237 260 Q 239 258.5 241 257 Q 243 255.5 245.5 254 Q 248 252.5 250.5 251 Q 253 249.5 255.5 248.5 Q 258 247.5 260 246.5 Q 262 245.5 264.5 244.5 Q 267 243.5 269 242.5 Q 271 241.5 273.5 240.5 Q 276 239.5 279 238.5 Q 282 237.5 285 236.5 Q 288 235.5 291 234.5 Q 294 233.5 296 233 Q 298 232.5 300.5 232 Q 303 231.5 305 231 Q 307 230.5 309 230.5 Q 311 230.5 313.5 230.5 Q 316 230.5 318.5 230 Q 321 229.5 323.5 229.5 Q 326 229.5 328.5 230 Q 331 230.5 333 231 Q 335 231.5 337 232 Q 339 232.5 341 233.5 Q 343 234.5 345.5 235 Q 348 235.5 350.5 236.5 Q 353 237.5 356 239 Q 359 240.5 361 241.5 Q 363 242.5 365 243.5 Q 367 244.5 369 245.5 Q 371 246.5 373 247.5 Q 375 248.5 378.5 250 Q 382 251.5 384 252.5 Q 386 253.5 388.5 254 Q 391 254.5 393.5 255.5 Q 396 256.5 398.5 257 Q 401 257.5 403 258.5 Q 405 259.5 407 261 Q 409 262.5 411 263.5 Q 413 264.5 415 265.5 Q 417 266.5 419 267.5 Q 421 268.5 423 270 Q 425 271.5 428 273.5 Q 431 275.5 434.5 277 Q 438 278.5 441.5 280 Q 445 281.5 447 282 Q 449 282.5 451 283.5 Q 453 284.5 455 285 Q 457 285.5 459 286 Q 461 286.5 463 287 Q 465 287.5 467 288 Q 469 288.5 471 289 Q 473 289.5 475 290 Q 477 290.5 479 291 Q 481 291.5 483 292 Q 485 292.5 487 293.5 Q 489 294.5 492.5 295.5 Q 496 296.5 498 297 Q 500 297.5 502 298 Q 504 298.5 506 299 Q 508 299.5 510 300.5 Q 512 301.5 514 302 Q 516 302.5 518 303 Q 520 303.5 523.5 304 Q 527 304.5 530.5 305.5 Q 534 306.5 536 307 Q 538 307.5 540.5 308 Q 543 308.5 545 308.5 Q 547 308.5 550 309 Q 553 309.5 555.5 310 Q 558 310.5 560 311 Q 562 311.5 564.5 311.5 Q 567 311.5 569.5 312 Q 572 312.5 574 313 Q 576 313.5 578.5 314 Q 581 314.5 583.5 314.5 Q 586 314.5 588.5 314.5 Q 591 314.5 593 314.5 Q 595 314.5 597 314.5 Q 599 314.5 601.5 314.5 Q 604 314.5 606 314 Q 608 313.5 610 313.5 Q 612 313.5 614 313 L 616.003 312.497" stroke-linecap="round" />
</g>
<g transform="matrix(1 0 0 1 317 239.5)"  >
<path style="stroke: rgb(255,165,0); stroke-width: 3; stroke-dasharray: none; stroke-linecap: round; stroke-dashoffset: 0; stroke-linejoin: round; stroke-miterlimit: 10; fill: none; fill-rule: nonzero; opacity: 1;"  transform=" translate(-317, -239.5)" d="M 316.997 239.5 L 317.003 239.5" stroke-linecap="round" />
</g>
<g transform="matrix(1 0 0 1 315.5 296.5)"  >
<path style="stroke: rgb(255,165,0); stroke-width: 3; stroke-dasharray: none; stroke-linecap: round; stroke-dashoffset: 0; stroke-linejoin: round; stroke-miterlimit: 10; fill: none; fill-rule: nonzero; opacity: 1;"  transform=" translate(-315.5, -296.5)" d="M 318.003 231.497 Q 318 231.5 316.5 234 Q 315 236.5 314.5 239 Q 314 241.5 314 244.5 Q 314 247.5 314 250.5 Q 314 253.5 315 256.5 Q 316 259.5 316 262 Q 316 264.5 316.5 267 Q 317 269.5 317 272 Q 317 274.5 317 276.5 Q 317 278.5 317 281 Q 317 283.5 317 286 Q 317 288.5 317 290.5 Q 317 292.5 317 294.5 Q 317 296.5 317 298.5 Q 317 300.5 317 304 Q 317 307.5 316.5 311 Q 316 314.5 316 317.5 Q 316 320.5 316 322.5 Q 316 324.5 315.5 327 Q 315 329.5 314 332.5 Q 313 335.5 312.5 338.5 Q 312 341.5 311 343.5 Q 310 345.5 308 347 Q 306 348.5 306 351 Q 306 353.5 306.5 355.5 Q 307 357.5 308.5 353 Q 310 348.5 310.5 346 Q 311 343.5 311 339 Q 311 334.5 311.5 331.5 Q 312 328.5 312 326 Q 312 323.5 312 321 Q 312 318.5 312 314 Q 312 309.5 311.5 304.5 Q 311 299.5 311 294 Q 311 288.5 310.5 284 Q 310 279.5 310 275.5 Q 310 271.5 310.5 267 Q 311 262.5 311.5 257.5 Q 312 252.5 313 249 Q 314 245.5 314.5 241.5 Q 315 237.5 315.5 235 Q 316 232.5 317 236.5 Q 318 240.5 318 243.5 Q 318 246.5 318 250 Q 318 253.5 318.5 257.5 Q 319 261.5 319 265.5 Q 319 269.5 319 273.5 Q 319 277.5 319 281.5 Q 319 285.5 319.5 290 Q 320 294.5 320 299 Q 320 303.5 320 307.5 Q 320 311.5 320 316 Q 320 320.5 320 324.5 Q 320 328.5 319 332 Q 318 335.5 317.5 338.5 Q 317 341.5 317 344 Q 317 346.5 316 349 Q 315 351.5 315 349 Q 315 346.5 315 342.5 Q 315 338.5 315 333.5 Q 315 328.5 315.5 320.5 Q 316 312.5 317 302.5 Q 318 292.5 319 285.5 Q 320 278.5 320.5 270.5 Q 321 262.5 321.5 258.5 Q 322 254.5 321.5 252 Q 321 249.5 320.5 247.5 Q 320 245.5 318.5 249.5 Q 317 253.5 317.5 260 Q 318 266.5 319 274 Q 320 281.5 320.5 289 Q 321 296.5 322 304 Q 323 311.5 323.5 319 Q 324 326.5 324.5 333 Q 325 339.5 325 345 Q 325 350.5 325 354 Q 325 357.5 325 359.5 L 325 361.503" stroke-linecap="round" />
</g>
<g transform="matrix(1 0 0 1 319 391.22)"  >
<path style="stroke: rgb(255,165,0); stroke-width: 3; stroke-dasharray: none; stroke-linecap: round; stroke-dashoffset: 0; stroke-linejoin: round; stroke-miterlimit: 10; fill: none; fill-rule: nonzero; opacity: 1;"  transform=" translate(-319, -391.22)" d="M 307.997 386.497 Q 308 386.5 312 393 Q 316 399.5 316.5 402 Q 317 404.5 317.5 406.5 Q 318 408.5 315.5 406 Q 313 403.5 311 400 Q 309 396.5 307.5 393.5 Q 306 390.5 305.5 388 Q 305 385.5 306 383.5 Q 307 381.5 309 379 Q 311 376.5 314 375.5 Q 317 374.5 320.5 374.5 Q 324 374.5 326.5 375.5 Q 329 376.5 330.5 378.5 Q 332 380.5 332.5 382.5 Q 333 384.5 332 386.5 Q 331 388.5 328.5 390 Q 326 391.5 323 392 Q 320 392.5 316.5 392.5 L 312.997 392.5" stroke-linecap="round" />
</g>
<g transform="matrix(1 0 0 1 341.63 382.39)"  >
<path style="stroke: rgb(255,165,0); stroke-width: 3; stroke-dasharray: none; stroke-linecap: round; stroke-dashoffset: 0; stroke-linejoin: round; stroke-miterlimit: 10; fill: none; fill-rule: nonzero; opacity: 1;"  transform=" translate(-341.63, -382.39)" d="M 355.003 375.497 Q 355 375.5 346 375.5 Q 337 375.5 334.5 377 Q 332 378.5 330.5 380 Q 329 381.5 328.5 383.5 Q 328 385.5 331.5 387.5 Q 335 389.5 338 389 Q 341 388.5 343 387.5 Q 345 386.5 346 384 L 347.003 381.497" stroke-linecap="round" />
</g>
<g transform="matrix(1 0 0 1 366.5 378)"  >
<path style="stroke: rgb(255,165,0); stroke-width: 3; stroke-dasharray: none; stroke-linecap: round; stroke-dashoffset: 0; stroke-linejoin: round; stroke-miterlimit: 10; fill: none; fill-rule: nonzero; opacity: 1;"  transform=" translate(-366.5, -378)" d="M 359.997 371.497 Q 360 371.5 363.5 373.5 Q 367 375.5 369 378 Q 371 380.5 372 382.5 L 373.003 384.503" stroke-linecap="round" />
</g>
<g transform="matrix(1 0 0 1 367 365.5)"  >
<path style="stroke: rgb(255,165,0); stroke-width: 3; stroke-dasharray: none; stroke-linecap: round; stroke-dashoffset: 0; stroke-linejoin: round; stroke-miterlimit: 10; fill: none; fill-rule: nonzero; opacity: 1;"  transform=" translate(-367, -365.5)" d="M 366.997 365.5 L 367.003 365.5" stroke-linecap="round" />
</g>
<g transform="matrix(1 0 0 1 393.5 383.34)"  >
<path style="stroke: rgb(255,165,0); stroke-width: 3; stroke-dasharray: none; stroke-linecap: round; stroke-dashoffset: 0; stroke-linejoin: round; stroke-miterlimit: 10; fill: none; fill-rule: nonzero; opacity: 1;"  transform=" translate(-393.5, -383.34)" d="M 382.997 374.497 Q 383 374.5 385.5 378.5 Q 388 382.5 389 385 Q 390 387.5 390 389.5 Q 390 391.5 389.5 393.5 Q 389 395.5 388.5 393 Q 388 390.5 388 387.5 Q 388 384.5 389 381 Q 390 377.5 391 375 Q 392 372.5 394 372 Q 396 371.5 397.5 374 Q 399 376.5 400 379.5 Q 401 382.5 402.5 385 L 404.003 387.503" stroke-linecap="round" />
</g>
<g transform="matrix(1 0 0 1 417 372.5)"  >
<path style="stroke: rgb(255,165,0); stroke-width: 3; stroke-dasharray: none; stroke-linecap: round; stroke-dashoffset: 0; stroke-linejoin: round; stroke-miterlimit: 10; fill: none; fill-rule: nonzero; opacity: 1;"  transform=" translate(-417, -372.5)" d="M 414.997 356.497 Q 415 356.5 416 360.5 Q 417 364.5 417.5 368.5 Q 418 372.5 418.5 377 Q 419 381.5 419 385 L 419 388.503" stroke-linecap="round" />
</g>
<g transform="matrix(1 0 0 1 407 371)"  >
<path style="stroke: rgb(255,165,0); stroke-width: 3; stroke-dasharray: none; stroke-linecap: round; stroke-dashoffset: 0; stroke-linejoin: round; stroke-miterlimit: 10; fill: none; fill-rule: nonzero; opacity: 1;"  transform=" translate(-407, -371)" d="M 402.997 371.5 Q 403 371.5 407 371 L 411.003 370.5" stroke-linecap="round" />
</g>
<g transform="matrix(1 0 0 1 465.09 377.59)"  >
<path style="stroke: rgb(255,165,0); stroke-width: 3; stroke-dasharray: none; stroke-linecap: round; stroke-dashoffset: 0; stroke-linejoin: round; stroke-miterlimit: 10; fill: none; fill-rule: nonzero; opacity: 1;"  transform=" translate(-465.09, -377.59)" d="M 460.997 380.5 Q 461 380.5 463 381 Q 465 381.5 467.5 381.5 Q 470 381.5 471.5 380 Q 473 378.5 473 375.5 Q 473 372.5 470.5 370.5 Q 468 368.5 466 368 Q 464 367.5 462 368.5 Q 460 369.5 459 371.5 Q 458 373.5 457.5 376.5 Q 457 379.5 458 382 Q 459 384.5 461 385.5 Q 463 386.5 465.5 387 L 468.003 387.503" stroke-linecap="round" />
</g>
<g transform="matrix(1 0 0 1 486.14 382.28)"  >
<path style="stroke: rgb(255,165,0); stroke-width: 3; stroke-dasharray: none; stroke-linecap: round; stroke-dashoffset: 0; stroke-linejoin: round; stroke-miterlimit: 10; fill: none; fill-rule: nonzero; opacity: 1;"  transform=" translate(-486.14, -382.28)" d="M 487.003 375.497 Q 487 375.5 488 373.5 Q 489 371.5 486 374 Q 483 376.5 481 377.5 Q 479 378.5 483 379.5 Q 487 380.5 489 381.5 Q 491 382.5 492 385.5 Q 493 388.5 490 390.5 Q 487 392.5 484.5 392.5 L 481.997 392.5" stroke-linecap="round" />
</g>
<g transform="matrix(1 0 0 1 495.5 372.5)"  >
<path style="stroke: rgb(255,165,0); stroke-width: 3; stroke-dasharray: none; stroke-linecap: round; stroke-dashoffset: 0; stroke-linejoin: round; stroke-miterlimit: 10; fill: none; fill-rule: nonzero; opacity: 1;"  transform=" translate(-495.5, -372.5)" d="M 494.997 352.497 Q 495 352.5 495 354.5 Q 495 356.5 495.5 360 Q 496 363.5 496 367.5 Q 496 371.5 496 376.5 Q 496 381.5 496 385 Q 496 388.5 495.5 390.5 L 494.997 392.503" stroke-linecap="round" />
</g>
<g transform="matrix(1 0 0 1 488 377)"  >
<path style="stroke: rgb(255,165,0); stroke-width: 3; stroke-dasharray: none; stroke-linecap: round; stroke-dashoffset: 0; stroke-linejoin: round; stroke-miterlimit: 10; fill: none; fill-rule: nonzero; opacity: 1;"  transform=" translate(-488, -377)" d="M 480.997 380.503 Q 481 380.5 481 378 Q 481 375.5 483 375 Q 485 374.5 487.5 374 Q 490 373.5 492.5 373.5 L 495.003 373.5" stroke-linecap="round" />
</g>
<g transform="matrix(1 0 0 1 510 384)"  >
<path style="stroke: rgb(255,165,0); stroke-width: 3; stroke-dasharray: none; stroke-linecap: round; stroke-dashoffset: 0; stroke-linejoin: round; stroke-miterlimit: 10; fill: none; fill-rule: nonzero; opacity: 1;"  transform=" translate(-510, -384)" d="M 507.997 376.497 Q 508 376.5 509 379 Q 510 381.5 511 384 Q 512 386.5 512 389 L 512 391.503" stroke-linecap="round" />
</g>
<g transform="matrix(1 0 0 1 509 361.5)"  >
<path style="stroke: rgb(255,165,0); stroke-width: 3; stroke-dasharray: none; stroke-linecap: round; stroke-dashoffset: 0; stroke-linejoin: round; stroke-miterlimit: 10; fill: none; fill-rule: nonzero; opacity: 1;"  transform=" translate(-509, -361.5)" d="M 508.997 361.5 L 509.003 361.5" stroke-linecap="round" />
</g>
<g transform="matrix(1 0 0 1 537 382.38)"  >
<path style="stroke: rgb(255,165,0); stroke-width: 3; stroke-dasharray: none; stroke-linecap: round; stroke-dashoffset: 0; stroke-linejoin: round; stroke-miterlimit: 10; fill: none; fill-rule: nonzero; opacity: 1;"  transform=" translate(-537, -382.38)" d="M 521.997 372.497 Q 522 372.5 523 375 Q 524 377.5 525 380.5 Q 526 383.5 527 386.5 Q 528 389.5 528.5 392 Q 529 394.5 528.5 392 Q 528 389.5 528 386 Q 528 382.5 528 379.5 Q 528 376.5 528.5 374.5 Q 529 372.5 532 371.5 Q 535 370.5 537 373 Q 539 375.5 540 378 Q 541 380.5 540.5 378.5 Q 540 376.5 541.5 375 Q 543 373.5 545 373 Q 547 372.5 548 375 Q 549 377.5 550 380 Q 551 382.5 551.5 385 L 552.003 387.503" stroke-linecap="round" />
</g>
<g transform="matrix(1 0 0 1 568 381.63)"  >
<path style="stroke: rgb(255,165,0); stroke-width: 3; stroke-dasharray: none; stroke-linecap: round; stroke-dashoffset: 0; stroke-linejoin: round; stroke-miterlimit: 10; fill: none; fill-rule: nonzero; opacity: 1;"  transform=" translate(-568, -381.63)" d="M 576.003 376.5 Q 576 376.5 574.5 375 Q 573 373.5 571 373.5 Q 569 373.5 566.5 373 Q 564 372.5 561 375.5 Q 558 378.5 557.5 380.5 Q 557 382.5 557 384.5 Q 557 386.5 559.5 387.5 Q 562 388.5 565 386.5 Q 568 384.5 568.5 381.5 Q 569 378.5 570.5 381 Q 572 383.5 573 385.5 Q 574 387.5 576.5 389 L 579.003 390.503" stroke-linecap="round" />
</g>
<g transform="matrix(1 0 0 1 592 366.5)"  >
<path style="stroke: rgb(255,165,0); stroke-width: 3; stroke-dasharray: none; stroke-linecap: round; stroke-dashoffset: 0; stroke-linejoin: round; stroke-miterlimit: 10; fill: none; fill-rule: nonzero; opacity: 1;"  transform=" translate(-592, -366.5)" d="M 586.997 348.497 Q 587 348.5 589.5 353 Q 592 357.5 593 362.5 Q 594 367.5 595 373 Q 596 378.5 596.5 381.5 L 597.003 384.503" stroke-linecap="round" />
</g>
<g transform="matrix(1 0 0 1 612.5 370.09)"  >
<path style="stroke: rgb(255,165,0); stroke-width: 3; stroke-dasharray: none; stroke-linecap: round; stroke-dashoffset: 0; stroke-linejoin: round; stroke-miterlimit: 10; fill: none; fill-rule: nonzero; opacity: 1;"  transform=" translate(-612.5, -370.09)" d="M 582.997 369.5 Q 583 369.5 585 371 Q 587 372.5 589 372.5 Q 591 372.5 593.5 372 Q 596 371.5 598.5 371.5 Q 601 371.5 603 371.5 Q 605 371.5 607 371.5 Q 609 371.5 612.5 371.5 Q 616 371.5 618 372 Q 620 372.5 622.5 372 Q 625 371.5 627.5 370 Q 630 368.5 631.5 367 Q 633 365.5 633 363 Q 633 360.5 631 360 Q 629 359.5 626.5 360.5 Q 624 361.5 622 363.5 Q 620 365.5 619.5 368 Q 619 370.5 619 373 Q 619 375.5 621 377 Q 623 378.5 625.5 379.5 Q 628 380.5 631 380.5 Q 634 380.5 636.5 379.5 Q 639 378.5 640.5 377 L 642.003 375.497" stroke-linecap="round" />
</g>
<g transform="matrix(1 0 0 1 418.5 371.5)"  >
<path style="stroke: rgb(255,165,0); stroke-width: 3; stroke-dasharray: none; stroke-linecap: round; stroke-dashoffset: 0; stroke-linejoin: round; stroke-miterlimit: 10; fill: none; fill-rule: nonzero; opacity: 1;"  transform=" translate(-418.5, -371.5)" d="M 405.997 375.503 Q 406 375.5 409.5 374 Q 413 372.5 416.5 371 Q 420 369.5 422 369 Q 424 368.5 427.5 368 L 431.003 367.497" stroke-linecap="round" />
</g>
<g transform="matrix(1 0 0 1 324.5 436.5)"  >
<path style="stroke: rgb(255,165,0); stroke-width: 3; stroke-dasharray: none; stroke-linecap: round; stroke-dashoffset: 0; stroke-linejoin: round; stroke-miterlimit: 10; fill: none; fill-rule: nonzero; opacity: 1;"  transform=" translate(-324.5, -436.5)" d="M 319.997 419.497 Q 320 419.5 324 431 Q 328 442.5 328.5 445 Q 329 447.5 329 450.5 L 329 453.503" stroke-linecap="round" />
</g>
<g transform="matrix(1 0 0 1 329.87 418.65)"  >
<path style="stroke: rgb(255,165,0); stroke-width: 3; stroke-dasharray: none; stroke-linecap: round; stroke-dashoffset: 0; stroke-linejoin: round; stroke-miterlimit: 10; fill: none; fill-rule: nonzero; opacity: 1;"  transform=" translate(-329.87, -418.65)" d="M 317.997 416.503 Q 318 416.5 319 414.5 Q 320 412.5 324 411 Q 328 409.5 330.5 410.5 Q 333 411.5 335 413.5 Q 337 415.5 339 417.5 Q 341 419.5 341.5 421.5 Q 342 423.5 339 425.5 L 335.997 427.503" stroke-linecap="round" />
</g>
<g transform="matrix(1 0 0 1 361.5 422.91)"  >
<path style="stroke: rgb(255,165,0); stroke-width: 3; stroke-dasharray: none; stroke-linecap: round; stroke-dashoffset: 0; stroke-linejoin: round; stroke-miterlimit: 10; fill: none; fill-rule: nonzero; opacity: 1;"  transform=" translate(-361.5, -422.91)" d="M 377.003 420.503 Q 377 420.5 375.5 418.5 Q 374 416.5 372 415.5 Q 370 414.5 367.5 413.5 Q 365 412.5 362.5 412.5 Q 360 412.5 357 413.5 Q 354 414.5 351.5 416 Q 349 417.5 347.5 420 Q 346 422.5 346 425.5 Q 346 428.5 347 430.5 Q 348 432.5 350.5 433 Q 353 433.5 355.5 432.5 Q 358 431.5 360 429.5 Q 362 427.5 363 425 Q 364 422.5 364.5 420.5 Q 365 418.5 364 416 L 362.997 413.497" stroke-linecap="round" />
</g>
<g transform="matrix(1 0 0 1 390.34 425.89)"  >
<path style="stroke: rgb(255,165,0); stroke-width: 3; stroke-dasharray: none; stroke-linecap: round; stroke-dashoffset: 0; stroke-linejoin: round; stroke-miterlimit: 10; fill: none; fill-rule: nonzero; opacity: 1;"  transform=" translate(-390.34, -425.89)" d="M 401.003 414.5 Q 401 414.5 399 413.5 Q 397 412.5 395 412.5 Q 393 412.5 390.5 412.5 Q 388 412.5 385.5 413.5 Q 383 414.5 381 415.5 Q 379 416.5 383 418 Q 387 419.5 389 420.5 Q 391 421.5 393 422.5 Q 395 423.5 396 425.5 Q 397 427.5 397.5 429.5 Q 398 431.5 397 433.5 Q 396 435.5 394.5 437 Q 393 438.5 391 439 Q 389 439.5 387 437.5 L 384.997 435.497" stroke-linecap="round" />
</g>
<g transform="matrix(1 0 0 1 413.5 417)"  >
<path style="stroke: rgb(255,165,0); stroke-width: 3; stroke-dasharray: none; stroke-linecap: round; stroke-dashoffset: 0; stroke-linejoin: round; stroke-miterlimit: 10; fill: none; fill-rule: nonzero; opacity: 1;"  transform=" translate(-413.5, -417)" d="M 408.997 400.497 Q 409 400.5 412 405 Q 415 409.5 416 414.5 Q 417 419.5 417 424 Q 417 428.5 417.5 431 L 418.003 433.503" stroke-linecap="round" />
</g>
<g transform="matrix(1 0 0 1 412.5 422)"  >
<path style="stroke: rgb(255,165,0); stroke-width: 3; stroke-dasharray: none; stroke-linecap: round; stroke-dashoffset: 0; stroke-linejoin: round; stroke-miterlimit: 10; fill: none; fill-rule: nonzero; opacity: 1;"  transform=" translate(-412.5, -422)" d="M 400.997 424.503 Q 401 424.5 405 423 Q 409 421.5 412.5 421 Q 416 420.5 420 420 L 424.003 419.497" stroke-linecap="round" />
</g>
<g transform="matrix(1 0 0 1 440.33 428.6)"  >
<path style="stroke: rgb(255,165,0); stroke-width: 3; stroke-dasharray: none; stroke-linecap: round; stroke-dashoffset: 0; stroke-linejoin: round; stroke-miterlimit: 10; fill: none; fill-rule: nonzero; opacity: 1;"  transform=" translate(-440.33, -428.6)" d="M 433.997 425.497 Q 434 425.5 435.5 428.5 Q 437 431.5 440 432 Q 443 432.5 445 430 Q 447 427.5 446 424.5 Q 445 421.5 443 420 Q 441 418.5 438.5 419 Q 436 419.5 435.5 422 Q 435 424.5 435.5 428 Q 436 431.5 437 433.5 Q 438 435.5 440 437 L 442.003 438.503" stroke-linecap="round" />
</g>
<g transform="matrix(1 0 0 1 469 424.31)"  >
<path style="stroke: rgb(255,165,0); stroke-width: 3; stroke-dasharray: none; stroke-linecap: round; stroke-dashoffset: 0; stroke-linejoin: round; stroke-miterlimit: 10; fill: none; fill-rule: nonzero; opacity: 1;"  transform=" translate(-469, -424.31)" d="M 459.997 424.497 Q 460 424.5 461 422.5 Q 462 420.5 464.5 421 Q 467 421.5 468.5 423 Q 470 424.5 470.5 426.5 Q 471 428.5 471 431 Q 471 433.5 469 432.5 Q 467 431.5 467 429.5 Q 467 427.5 468 425 Q 469 422.5 471 420.5 Q 473 418.5 475.5 417 L 478.003 415.497" stroke-linecap="round" />
</g>
<g transform="matrix(1 0 0 1 493 428.5)"  >
<path style="stroke: rgb(255,165,0); stroke-width: 3; stroke-dasharray: none; stroke-linecap: round; stroke-dashoffset: 0; stroke-linejoin: round; stroke-miterlimit: 10; fill: none; fill-rule: nonzero; opacity: 1;"  transform=" translate(-493, -428.5)" d="M 485.997 418.497 Q 486 418.5 488.5 421.5 Q 491 424.5 493 427 Q 495 429.5 497 432 Q 499 434.5 499.5 436.5 L 500.003 438.503" stroke-linecap="round" />
</g>
<g transform="matrix(1 0 0 1 503 411.5)"  >
<path style="stroke: rgb(255,165,0); stroke-width: 3; stroke-dasharray: none; stroke-linecap: round; stroke-dashoffset: 0; stroke-linejoin: round; stroke-miterlimit: 10; fill: none; fill-rule: nonzero; opacity: 1;"  transform=" translate(-503, -411.5)" d="M 502.997 411.5 L 503.003 411.5" stroke-linecap="round" />
</g>
<g transform="matrix(1 0 0 1 531.65 420.06)"  >
<path style="stroke: rgb(255,165,0); stroke-width: 3; stroke-dasharray: none; stroke-linecap: round; stroke-dashoffset: 0; stroke-linejoin: round; stroke-miterlimit: 10; fill: none; fill-rule: nonzero; opacity: 1;"  transform=" translate(-531.65, -420.06)" d="M 521.003 419.497 Q 521 419.5 519 418 Q 517 416.5 514 417 Q 511 417.5 509.5 421 Q 508 424.5 509 426.5 Q 510 428.5 512.5 429.5 Q 515 430.5 517.5 430.5 Q 520 430.5 522 429.5 Q 524 428.5 525.5 426 Q 527 423.5 529 422 Q 531 420.5 532 424 Q 533 427.5 534 425.5 Q 535 423.5 535.5 420.5 Q 536 417.5 538.5 415.5 Q 541 413.5 543.5 412 Q 546 410.5 548.5 410 Q 551 409.5 553 410 L 555.003 410.503" stroke-linecap="round" />
</g>
<g transform="matrix(1 0 0 1 611.83 420.29)"  >
<path style="stroke: rgb(255,165,0); stroke-width: 3; stroke-dasharray: none; stroke-linecap: round; stroke-dashoffset: 0; stroke-linejoin: round; stroke-miterlimit: 10; fill: none; fill-rule: nonzero; opacity: 1;"  transform=" translate(-611.83, -420.29)" d="M 584.997 412.497 Q 585 412.5 586 415.5 Q 587 418.5 587.5 421 Q 588 423.5 588.5 426 Q 589 428.5 589 431 Q 589 433.5 587.5 430.5 Q 586 427.5 586 425.5 Q 586 423.5 586 420.5 Q 586 417.5 586.5 415 Q 587 412.5 588.5 411 Q 590 409.5 592 409 Q 594 408.5 597 409.5 Q 600 410.5 602 412 Q 604 413.5 605 415.5 Q 606 417.5 606.5 419.5 Q 607 421.5 608 419.5 Q 609 417.5 610 415.5 Q 611 413.5 613.5 412.5 Q 616 411.5 616.5 413.5 Q 617 415.5 618 418 Q 619 420.5 621.5 421.5 Q 624 422.5 626 423 Q 628 423.5 630.5 423 Q 633 422.5 635 420.5 Q 637 418.5 638 416.5 Q 639 414.5 637 411 Q 635 407.5 632.5 408 Q 630 408.5 628.5 410.5 Q 627 412.5 626 416 Q 625 419.5 626 421.5 Q 627 423.5 629.5 425 L 632.003 426.503" stroke-linecap="round" />
</g>
<g transform="matrix(1 0 0 1 651 416.83)"  >
<path style="stroke: rgb(255,165,0); stroke-width: 3; stroke-dasharray: none; stroke-linecap: round; stroke-dashoffset: 0; stroke-linejoin: round; stroke-miterlimit: 10; fill: none; fill-rule: nonzero; opacity: 1;"  transform=" translate(-651, -416.83)" d="M 663.003 414.503 Q 663 414.5 660.5 414 Q 658 413.5 654.5 411.5 Q 651 409.5 649 409.5 Q 647 409.5 645 410 Q 643 410.5 641.5 412 Q 640 413.5 639.5 415.5 Q 639 417.5 639 420 Q 639 422.5 641 423.5 Q 643 424.5 645 422.5 Q 647 420.5 648.5 418.5 Q 650 416.5 651 414.5 Q 652 412.5 654.5 413 Q 657 413.5 657.5 415.5 Q 658 417.5 659 419.5 L 660.003 421.503" stroke-linecap="round" />
</g>
<g transform="matrix(1 0 0 1 686.5 415.89)"  >
<path style="stroke: rgb(255,165,0); stroke-width: 3; stroke-dasharray: none; stroke-linecap: round; stroke-dashoffset: 0; stroke-linejoin: round; stroke-miterlimit: 10; fill: none; fill-rule: nonzero; opacity: 1;"  transform=" translate(-686.5, -415.89)" d="M 677 411.497 Q 677 411.5 679 414.5 Q 681 417.5 681 420 Q 681 422.5 680.5 424.5 Q 680 426.5 679.5 424.5 Q 679 422.5 679.5 420 Q 680 417.5 682 414.5 Q 684 411.5 686 409 Q 688 406.5 690 406 Q 692 405.5 694 409.5 Q 696 413.5 696 417 Q 696 420.5 696 423 L 696 425.503" stroke-linecap="round" />
</g>
</svg>
